<svg aria-roledescription="er" role="graphics-document document" viewBox="0 0 172.6030731201172 320" style="max-width: 172.603px; background-color: rgb(255, 255, 255);" xmlns:xlink="http://www.w3.org/1999/xlink" xmlns="http://www.w3.org/2000/svg" width="100%" id="mermaid-1690182270786"><style>#mermaid-1690182270786{font-family:"trebuchet ms",verdana,arial,sans-serif;font-size:16px;fill:#333;}#mermaid-1690182270786 .error-icon{fill:#552222;}#mermaid-1690182270786 .error-text{fill:#552222;stroke:#552222;}#mermaid-1690182270786 .edge-thickness-normal{stroke-width:2px;}#mermaid-1690182270786 .edge-thickness-thick{stroke-width:3.5px;}#mermaid-1690182270786 .edge-pattern-solid{stroke-dasharray:0;}#mermaid-1690182270786 .edge-pattern-dashed{stroke-dasharray:3;}#mermaid-1690182270786 .edge-pattern-dotted{stroke-dasharray:2;}#mermaid-1690182270786 .marker{fill:#333333;stroke:#333333;}#mermaid-1690182270786 .marker.cross{stroke:#333333;}#mermaid-1690182270786 svg{font-family:"trebuchet ms",verdana,arial,sans-serif;font-size:16px;}#mermaid-1690182270786 .entityBox{fill:#ECECFF;stroke:#9370DB;}#mermaid-1690182270786 .attributeBoxOdd{fill:#ffffff;stroke:#9370DB;}#mermaid-1690182270786 .attributeBoxEven{fill:#f2f2f2;stroke:#9370DB;}#mermaid-1690182270786 .relationshipLabelBox{fill:hsl(80, 100%, 96.2745098039%);opacity:0.7;background-color:hsl(80, 100%, 96.2745098039%);}#mermaid-1690182270786 .relationshipLabelBox rect{opacity:0.5;}#mermaid-1690182270786 .relationshipLine{stroke:#333333;}#mermaid-1690182270786 .entityTitleText{text-anchor:middle;font-size:18px;fill:#333;}#mermaid-1690182270786 :root{--mermaid-font-family:"trebuchet ms",verdana,arial,sans-serif;}</style><g/><defs><marker orient="auto" markerHeight="18" markerWidth="18" refY="9" refX="0" id="ONLY_ONE_START"><path d="M9,0 L9,18 M15,0 L15,18" fill="none" stroke="gray"/></marker></defs><defs><marker orient="auto" markerHeight="18" markerWidth="18" refY="9" refX="18" id="ONLY_ONE_END"><path d="M3,0 L3,18 M9,0 L9,18" fill="none" stroke="gray"/></marker></defs><defs><marker orient="auto" markerHeight="18" markerWidth="30" refY="9" refX="0" id="ZERO_OR_ONE_START"><circle r="6" cy="9" cx="21" fill="white" stroke="gray"/><path d="M9,0 L9,18" fill="none" stroke="gray"/></marker></defs><defs><marker orient="auto" markerHeight="18" markerWidth="30" refY="9" refX="30" id="ZERO_OR_ONE_END"><circle r="6" cy="9" cx="9" fill="white" stroke="gray"/><path d="M21,0 L21,18" fill="none" stroke="gray"/></marker></defs><defs><marker orient="auto" markerHeight="36" markerWidth="45" refY="18" refX="18" id="ONE_OR_MORE_START"><path d="M0,18 Q 18,0 36,18 Q 18,36 0,18 M42,9 L42,27" fill="none" stroke="gray"/></marker></defs><defs><marker orient="auto" markerHeight="36" markerWidth="45" refY="18" refX="27" id="ONE_OR_MORE_END"><path d="M3,9 L3,27 M9,18 Q27,0 45,18 Q27,36 9,18" fill="none" stroke="gray"/></marker></defs><defs><marker orient="auto" markerHeight="36" markerWidth="57" refY="18" refX="18" id="ZERO_OR_MORE_START"><circle r="6" cy="18" cx="48" fill="white" stroke="gray"/><path d="M0,18 Q18,0 36,18 Q18,36 0,18" fill="none" stroke="gray"/></marker></defs><defs><marker orient="auto" markerHeight="36" markerWidth="57" refY="18" refX="39" id="ZERO_OR_MORE_END"><circle r="6" cy="18" cx="9" fill="white" stroke="gray"/><path d="M21,18 Q39,0 57,18 Q39,36 21,18" fill="none" stroke="gray"/></marker></defs><path style="stroke: gray; fill: none;" marker-start="url(#ONLY_ONE_START)" marker-end="url(#ZERO_OR_MORE_END)" d="M86.3015365600586,110L86.3015365600586,118.33333333333333C86.3015365600586,126.66666666666667,86.3015365600586,143.33333333333334,86.3015365600586,160C86.3015365600586,176.66666666666666,86.3015365600586,193.33333333333334,86.3015365600586,201.66666666666666L86.3015365600586,210" class="er relationshipLine"/><g transform="translate(20,20 )" id="entity-Product-8913f459-c6e1-5923-8b2e-55129fac4b99"><rect height="90" width="132.6030731201172" y="0" x="0" class="er entityBox"/><text style="dominant-baseline: middle; text-anchor: middle; font-size: 12px;" transform="translate(66.3015365600586,12)" y="0" x="0" id="text-entity-Product-8913f459-c6e1-5923-8b2e-55129fac4b99" class="er entityLabel">Product</text><rect height="22" width="36.61909484863281" y="24" x="0" class="er attributeBoxOdd"/><text style="dominant-baseline: middle; font-size: 10.2px;" transform="translate(5,35)" y="0" x="0" id="text-entity-Product-8913f459-c6e1-5923-8b2e-55129fac4b99-attr-1-type" class="er entityLabel">uuid</text><rect height="22" width="73.29629516601562" y="24" x="36.61909484863281" class="er attributeBoxOdd"/><text style="dominant-baseline: middle; font-size: 10.2px;" transform="translate(41.61909484863281,35)" y="0" x="0" id="text-entity-Product-8913f459-c6e1-5923-8b2e-55129fac4b99-attr-1-name" class="er entityLabel">id</text><rect height="22" width="22.68768310546875" y="24" x="109.91539001464844" class="er attributeBoxOdd"/><text style="dominant-baseline: middle; font-size: 10.2px;" transform="translate(114.91539001464844,35)" y="0" x="0" id="text-entity-Product-8913f459-c6e1-5923-8b2e-55129fac4b99-attr-1-key" class="er entityLabel">PK</text><rect height="22" width="36.61909484863281" y="46" x="0" class="er attributeBoxEven"/><text style="dominant-baseline: middle; font-size: 10.2px;" transform="translate(5,57)" y="0" x="0" id="text-entity-Product-8913f459-c6e1-5923-8b2e-55129fac4b99-attr-2-type" class="er entityLabel">string</text><rect height="22" width="73.29629516601562" y="46" x="36.61909484863281" class="er attributeBoxEven"/><text style="dominant-baseline: middle; font-size: 10.2px;" transform="translate(41.61909484863281,57)" y="0" x="0" id="text-entity-Product-8913f459-c6e1-5923-8b2e-55129fac4b99-attr-2-name" class="er entityLabel">name</text><rect height="22" width="22.68768310546875" y="46" x="109.91539001464844" class="er attributeBoxEven"/><text style="dominant-baseline: middle; font-size: 10.2px;" transform="translate(114.91539001464844,57)" y="0" x="0" id="text-entity-Product-8913f459-c6e1-5923-8b2e-55129fac4b99-attr-2-key" class="er entityLabel"/><rect height="22" width="36.61909484863281" y="68" x="0" class="er attributeBoxOdd"/><text style="dominant-baseline: middle; font-size: 10.2px;" transform="translate(5,79)" y="0" x="0" id="text-entity-Product-8913f459-c6e1-5923-8b2e-55129fac4b99-attr-3-type" class="er entityLabel">string</text><rect height="22" width="73.29629516601562" y="68" x="36.61909484863281" class="er attributeBoxOdd"/><text style="dominant-baseline: middle; font-size: 10.2px;" transform="translate(41.61909484863281,79)" y="0" x="0" id="text-entity-Product-8913f459-c6e1-5923-8b2e-55129fac4b99-attr-3-name" class="er entityLabel">manufacturer</text><rect height="22" width="22.68768310546875" y="68" x="109.91539001464844" class="er attributeBoxOdd"/><text style="dominant-baseline: middle; font-size: 10.2px;" transform="translate(114.91539001464844,79)" y="0" x="0" id="text-entity-Product-8913f459-c6e1-5923-8b2e-55129fac4b99-attr-3-key" class="er entityLabel"/></g><g transform="translate(30.06604766845703,210 )" id="entity-Inventory-1b36f409-8c02-5227-a3b0-d588273060ae"><rect height="90" width="112.47097778320312" y="0" x="0" class="er entityBox"/><text style="dominant-baseline: middle; text-anchor: middle; font-size: 12px;" transform="translate(56.23548889160156,12)" y="0" x="0" id="text-entity-Inventory-1b36f409-8c02-5227-a3b0-d588273060ae" class="er entityLabel">Inventory</text><rect height="22" width="30.054855346679688" y="24" x="0" class="er attributeBoxOdd"/><text style="dominant-baseline: middle; font-size: 10.2px;" transform="translate(5,35)" y="0" x="0" id="text-entity-Inventory-1b36f409-8c02-5227-a3b0-d588273060ae-attr-1-type" class="er entityLabel">uuid</text><rect height="22" width="59.72843933105469" y="24" x="30.054855346679688" class="er attributeBoxOdd"/><text style="dominant-baseline: middle; font-size: 10.2px;" transform="translate(35.05485534667969,35)" y="0" x="0" id="text-entity-Inventory-1b36f409-8c02-5227-a3b0-d588273060ae-attr-1-name" class="er entityLabel">id</text><rect height="22" width="22.68768310546875" y="24" x="89.78329467773438" class="er attributeBoxOdd"/><text style="dominant-baseline: middle; font-size: 10.2px;" transform="translate(94.78329467773438,35)" y="0" x="0" id="text-entity-Inventory-1b36f409-8c02-5227-a3b0-d588273060ae-attr-1-key" class="er entityLabel">PK</text><rect height="22" width="30.054855346679688" y="46" x="0" class="er attributeBoxEven"/><text style="dominant-baseline: middle; font-size: 10.2px;" transform="translate(5,57)" y="0" x="0" id="text-entity-Inventory-1b36f409-8c02-5227-a3b0-d588273060ae-attr-2-type" class="er entityLabel">uuid</text><rect height="22" width="59.72843933105469" y="46" x="30.054855346679688" class="er attributeBoxEven"/><text style="dominant-baseline: middle; font-size: 10.2px;" transform="translate(35.05485534667969,57)" y="0" x="0" id="text-entity-Inventory-1b36f409-8c02-5227-a3b0-d588273060ae-attr-2-name" class="er entityLabel">product_id</text><rect height="22" width="22.68768310546875" y="46" x="89.78329467773438" class="er attributeBoxEven"/><text style="dominant-baseline: middle; font-size: 10.2px;" transform="translate(94.78329467773438,57)" y="0" x="0" id="text-entity-Inventory-1b36f409-8c02-5227-a3b0-d588273060ae-attr-2-key" class="er entityLabel"/><rect height="22" width="30.054855346679688" y="68" x="0" class="er attributeBoxOdd"/><text style="dominant-baseline: middle; font-size: 10.2px;" transform="translate(5,79)" y="0" x="0" id="text-entity-Inventory-1b36f409-8c02-5227-a3b0-d588273060ae-attr-3-type" class="er entityLabel">int</text><rect height="22" width="59.72843933105469" y="68" x="30.054855346679688" class="er attributeBoxOdd"/><text style="dominant-baseline: middle; font-size: 10.2px;" transform="translate(35.05485534667969,79)" y="0" x="0" id="text-entity-Inventory-1b36f409-8c02-5227-a3b0-d588273060ae-attr-3-name" class="er entityLabel">quantity</text><rect height="22" width="22.68768310546875" y="68" x="89.78329467773438" class="er attributeBoxOdd"/><text style="dominant-baseline: middle; font-size: 10.2px;" transform="translate(94.78329467773438,79)" y="0" x="0" id="text-entity-Inventory-1b36f409-8c02-5227-a3b0-d588273060ae-attr-3-key" class="er entityLabel"/></g><rect height="14" width="17.861328125" y="153" x="77.3708724975586" class="er relationshipLabelBox"/><text style="text-anchor: middle; dominant-baseline: middle; font-size: 12px;" y="160" x="86.3015365600586" id="rel2" class="er relationshipLabel">has</text></svg>