<?xml version="1.0" encoding="UTF-8" standalone="no"?>
<!-- Created with Inkscape (http://www.inkscape.org/) -->

<svg
   width="210mm"
   height="297mm"
   viewBox="0 0 210 297"
   version="1.1"
   id="svg5"
   inkscape:version="1.1.2 (b8e25be8, 2022-02-05)"
   sodipodi:docname="singmak_logo.svg"
   inkscape:export-filename="/Users/singwork/sing-projects/singmak.github.io/src/images/singmak_logo.png"
   inkscape:export-xdpi="29.320999"
   inkscape:export-ydpi="29.320999"
   xmlns:inkscape="http://www.inkscape.org/namespaces/inkscape"
   xmlns:sodipodi="http://sodipodi.sourceforge.net/DTD/sodipodi-0.dtd"
   xmlns="http://www.w3.org/2000/svg"
   xmlns:svg="http://www.w3.org/2000/svg">
  <sodipodi:namedview
     id="namedview7"
     pagecolor="#ffffff"
     bordercolor="#666666"
     borderopacity="1.0"
     inkscape:pageshadow="2"
     inkscape:pageopacity="0.0"
     inkscape:pagecheckerboard="0"
     inkscape:document-units="mm"
     showgrid="false"
     inkscape:zoom="1.0825721"
     inkscape:cx="209.68581"
     inkscape:cy="599.03633"
     inkscape:window-width="1920"
     inkscape:window-height="1027"
     inkscape:window-x="0"
     inkscape:window-y="25"
     inkscape:window-maximized="1"
     inkscape:current-layer="text57628" />
  <defs
     id="defs2" />
  <g
     inkscape:groupmode="layer"
     id="layer3"
     inkscape:label="Layer 1 copy copy copy 1"
     sodipodi:insensitive="true"
     style="display:none">
    <rect
       style="fill:#216778;stroke-width:0.264583"
       id="rect54552"
       width="185.99031"
       height="125.37849"
       x="7.576478"
       y="51.568928" />
  </g>
  <g
     inkscape:label="Layer 1 copy copy copy"
     inkscape:groupmode="layer"
     id="g54385"
     style="display:inline;opacity:1">
    <g
       aria-label="SING MAK's DEV JOURNEY"
       id="g54383"
       style="font-size:17.6389px;line-height:1.25;font-family:AppleGothic;-inkscape-font-specification:AppleGothic;fill:#ffffff;stroke-width:0.264583">
      <g
         id="g54349"
         transform="matrix(1.3087124,0,0,1.3497805,-28.819689,-42.602796)"
         style="fill:#ffffff">
        <path
           d="m 45.482289,113.74793 q 0,-0.28223 0.08819,-0.47625 0.105833,-0.21167 0.264583,-0.37042 0.176389,-0.15875 0.388056,-0.29986 0.211667,-0.14111 0.440972,-0.28223 0.476251,-0.29986 0.864307,-0.49388 0.405694,-0.19403 0.987778,-0.19403 0.370417,0 0.652639,0.0176 0.282223,0 0.582084,0.2293 0.246945,0.19403 0.335139,0.42334 0.105834,0.2293 0.105834,0.56444 0,0.17639 -0.07056,0.37042 -0.05292,0.19403 -0.176389,0.35278 -0.105833,0.15875 -0.282222,0.26458 -0.158751,0.0882 -0.352778,0.0882 -0.194028,0 -0.317501,-0.0882 -0.105833,-0.10583 -0.211666,-0.21167 -0.08819,-0.10583 -0.211667,-0.19403 -0.105834,-0.10583 -0.282223,-0.10583 -0.229305,0 -0.47625,0.0529 -0.229306,0.0353 -0.423334,0.14111 -0.194028,0.10583 -0.3175,0.26458 -0.123472,0.15875 -0.123472,0.38806 0,0.21167 0.141111,0.29986 0.141111,0.0882 0.335139,0.12347 0.211667,0.0353 0.440973,0.0706 0.229305,0.0353 0.423333,0.14111 0.476251,0.24694 0.81139,0.44097 0.352778,0.19403 0.79375,0.49389 0.15875,0.0882 0.282223,0.15875 0.123472,0.0529 0.229305,0.10583 0.123473,0.0529 0.246945,0.12348 0.123472,0.0705 0.282222,0.19402 0.511529,0.4057 0.81139,0.82903 0.3175,0.4057 0.3175,1.07598 v 0.40569 q 0,0.21167 0.07056,0.38806 0.07056,0.15875 0.07056,0.38805 0,0.37042 -0.15875,0.59972 -0.141111,0.22931 -0.282222,0.52917 -0.03528,0.14111 0,0.24695 0.03528,0.0882 -0.05292,0.19402 -0.07056,0.22931 -0.229306,0.29987 -0.15875,0.0705 -0.299861,0.24694 -0.15875,0.14111 -0.299861,0.24694 -0.141111,0.10584 -0.282223,0.21167 -0.141111,0.0882 -0.299861,0.17639 -0.141111,0.0882 -0.352778,0.19403 -0.335139,0.19403 -0.599723,0.26458 -0.264583,0.0882 -0.617361,0.17639 -0.123472,0.0353 -0.211667,0.10583 -0.08819,0.0882 -0.229306,0.0882 -0.15875,0 -0.246944,-0.0353 -0.08819,-0.0176 -0.194028,-0.0176 -0.264584,0 -0.423334,0.0529 -0.141111,0.0529 -0.370417,0.0529 -0.141111,0 -0.229305,-0.0706 -0.07056,-0.0529 -0.211667,-0.0882 -0.194028,-0.0706 -0.352778,-0.0706 -0.141111,0.0176 -0.335139,-0.0176 -0.194028,0 -0.317501,-0.12347 -0.123472,-0.10583 -0.3175,-0.22931 -0.194028,-0.10583 -0.370417,-0.15875 -0.176389,-0.0353 -0.370417,-0.2293 -0.194028,-0.10584 -0.211666,-0.26459 -0.01764,-0.17639 -0.123473,-0.37041 -0.141111,-0.29986 -0.246944,-0.45861 -0.105834,-0.17639 -0.105834,-0.52917 0,-0.51153 0.388056,-0.88195 0.388056,-0.38805 0.934862,-0.38805 0.335139,0 0.635,0.15875 0.299862,0.14111 0.299862,0.44097 0,0.10583 -0.03528,0.15875 -0.01764,0.0529 -0.01764,0.12347 0,0.12347 0.05292,0.19403 0.05292,0.0706 0.05292,0.15875 0,0.0353 -0.03528,0.10583 -0.01764,0.0529 -0.01764,0.0882 0,0.26458 0.141111,0.45861 0.141111,0.17639 0.352778,0.3175 0.229305,0.12347 0.511528,0.19403 0.282222,0.0529 0.564445,0.0529 0.564445,0 1.023056,-0.26458 0.47625,-0.26458 0.846667,-0.70555 0.211667,-0.22931 0.352778,-0.47626 0.141111,-0.24694 0.141111,-0.61736 0,-0.21166 -0.105833,-0.38805 -0.105833,-0.19403 -0.105833,-0.38806 0,-0.0882 0.01764,-0.0882 0.03528,-0.0176 0.03528,-0.0529 0,-0.28222 -0.15875,-0.45861 -0.141111,-0.19403 -0.370417,-0.33514 -0.229305,-0.14111 -0.511528,-0.26458 -0.264583,-0.12348 -0.529167,-0.26459 -0.07056,-0.0353 -0.123472,-0.12347 -0.03528,-0.0882 -0.123472,-0.12347 -0.176389,-0.0882 -0.352778,-0.0882 -0.176389,-0.0176 -0.33514,-0.15875 -0.141111,-0.0882 -0.194028,-0.17639 -0.05292,-0.10583 -0.194027,-0.21166 -0.194028,-0.0882 -0.352778,-0.0882 -0.141112,-0.0176 -0.33514,-0.15875 -0.105833,-0.12347 -0.194027,-0.21166 -0.07056,-0.0882 -0.141112,-0.22931 -0.141111,-0.17639 -0.352778,-0.28222 -0.194028,-0.10584 -0.194028,-0.37042 v -0.44097 q 0,-0.10583 -0.01764,-0.21167 -0.01764,-0.10583 -0.01764,-0.2293 0,-0.0706 0.01764,-0.10584 0.01764,-0.0529 0.01764,-0.12347 0,-0.0882 0.01764,-0.14111 0.03528,-0.0706 0.03528,-0.10583 z"
           style="font-family:Trattatello;-inkscape-font-specification:Trattatello;fill:#ffffff"
           id="path54341" />
        <path
           d="m 55.839631,112.17806 q 0.05292,0 0.176389,0.0353 0.123472,0.0176 0.264584,0.0529 0.141111,0.0176 0.264583,0.0353 0.141111,0.0176 0.211667,0.0176 0.03528,0 0.123472,0.0706 0.0882,0.0706 0.15875,0.17639 0.08819,0.10583 0.141112,0.24694 0.07055,0.12348 0.07055,0.24695 0,0.0705 -0.211667,0.12347 -0.211667,0.0529 -0.47625,0.10583 -0.264584,0.0529 -0.47625,0.12348 -0.211667,0.0705 -0.211667,0.17639 v 1.23472 q 0.03528,0.14111 0.08819,0.26458 0.03528,0.10584 0.07056,0.21167 0.03528,0.10583 0.03528,0.15875 l -0.194028,0.82903 q 0,0.0529 0.01764,0.19403 0.03528,0.14111 0.07055,0.29986 0.05292,0.15875 0.07056,0.29986 0.03528,0.14111 0.03528,0.19403 l 0.15875,0.88194 q 0,0.37042 -0.0882,0.68792 -0.07055,0.3175 -0.07055,0.44097 v 0.49389 q 0,0.10583 -0.105834,0.19403 -0.08819,0.0706 -0.08819,0.44097 0,0.0706 0.05292,0.17639 0.05292,0.0882 0.123472,0.17639 0.08819,0.0705 0.176389,0.12347 0.08819,0.0529 0.141111,0.0529 l 0.388056,0.10583 q 0.493889,0.22931 0.493889,0.74083 0,0.21167 -0.299861,0.33514 -0.282223,0.14112 -0.582084,0.14112 h -0.299861 -0.335139 -0.335139 l -0.65264,-0.19403 q -0.105833,0 -0.299861,0.0529 -0.194028,0.0529 -0.405695,0.12348 -0.211667,0.0705 -0.388056,0.12347 -0.176389,0.0529 -0.229305,0.0529 -0.105834,0 -0.299862,-0.12348 -0.176389,-0.10583 -0.176389,-0.2293 0,-0.19403 0.194028,-0.33514 0.211667,-0.15875 0.440973,-0.29986 0.246944,-0.15875 0.405694,-0.33514 0.176389,-0.17639 0.123473,-0.44097 -0.141111,-0.26459 -0.07056,-0.38806 0.07056,-0.14111 0.07056,-0.26458 v -0.47625 -1.18181 -2.55764 l -0.194028,-0.47625 q 0.03528,-0.19403 0.08819,-0.37042 0.03528,-0.14111 0.07056,-0.26458 0.03528,-0.14111 0.03528,-0.21167 0,-0.35278 -0.05292,-0.54681 -0.05292,-0.21166 -0.141111,-0.33513 -0.0882,-0.0882 -0.194028,-0.10584 -0.105833,-0.0353 -0.229306,-0.0353 -0.105833,-0.0176 -0.229305,-0.0353 -0.123473,-0.0176 -0.229306,-0.0706 -0.105834,-0.0705 -0.176389,-0.2293 -0.07056,-0.15875 -0.07056,-0.49389 0,-0.0706 0.01764,-0.14111 0.01764,-0.0529 0.03528,-0.10584 0.03528,-0.0529 0.105833,-0.0529 h 0.335139 0.635001 q 0.07055,0 0.15875,0.0176 0.105833,0.0176 0.194028,0.0529 0.08819,0.0353 0.194028,0.0706 0.105833,0 0.264583,-0.0176 0.15875,-0.0176 0.299862,-0.0529 0.176389,-0.0353 0.370417,-0.0706 h 0.194027 q 0.07056,0 0.176389,-0.0705 z"
           style="font-family:Trattatello;-inkscape-font-specification:Trattatello;fill:#ffffff"
           id="path54343" />
        <path
           d="m 60.354638,112.21334 q 0.229306,0 0.388056,0.0176 0.15875,0.0176 0.299861,0.14111 0.229306,0.14111 0.282223,0.26459 0.07055,0.10583 0.211666,0.2293 0.123473,0.35278 0.370417,0.44097 0.246945,0.0706 0.458612,0.24695 0.211667,0.17639 0.405695,0.44097 0.211666,0.24695 0.423333,0.52917 0.211667,0.28222 0.405695,0.5468 0.194028,0.26459 0.388056,0.44098 0.264583,0.29986 0.440972,0.635 0.194028,0.3175 0.599723,0.52916 0.105833,0.0882 0.405695,0.4057 0.299861,0.3175 0.652639,0.68792 0.370417,0.35277 0.705556,0.635 0.335139,0.28222 0.529167,0.28222 0.123472,0 0.15875,-0.0529 0.05292,-0.0529 0.05292,-0.12347 0,-0.0882 -0.03528,-0.15875 -0.01764,-0.0882 -0.01764,-0.14111 v -1.32292 q 0,-0.15875 0.08819,-0.37042 0.105833,-0.21166 0.105833,-0.51152 v -1.48167 q -0.07056,-0.0529 -0.194028,-0.17639 -0.123472,-0.12347 -0.246945,-0.24695 -0.123472,-0.14111 -0.246944,-0.24694 -0.105834,-0.10583 -0.15875,-0.10583 h -0.335139 q -0.105834,0 -0.246945,-0.0529 -0.141111,-0.0706 -0.264584,-0.15875 -0.123472,-0.0882 -0.211666,-0.15875 -0.07056,-0.0882 -0.07056,-0.12347 v -0.54681 q 0,-0.17639 0.07056,-0.28222 0.08819,-0.10584 0.211666,-0.14111 0.123473,-0.0529 0.264584,-0.0529 0.141111,-0.0176 0.246945,-0.0176 h 0.335139 q 0.123472,0 0.3175,0.0353 0.211667,0.0176 0.423334,0.0529 0.229305,0.0176 0.423333,0.0529 0.211667,0.0176 0.370417,0.0176 h 2.451807 q 0.352778,0 0.65264,0.15875 0.3175,0.15875 0.3175,0.52917 0,0.14111 -0.01764,0.24694 -0.01764,0.0882 -0.123472,0.24695 -0.405695,0.24694 -0.793751,0.2293 -0.370417,-0.0353 -0.723195,-0.0353 l -0.493889,0.14111 h -0.299861 q -0.141112,0 -0.246945,0.21166 -0.08819,0.19403 -0.08819,0.42334 v 0.68791 0.14112 1.04069 0.82903 q 0,0.10583 0.07056,0.3175 0.07056,0.21167 0.07056,0.3175 v 0.98778 l -0.299862,1.71097 q 0,0.10584 0.03528,0.28222 0.05292,0.17639 0.105834,0.37042 0.07055,0.17639 0.105833,0.35278 0.05292,0.15875 0.05292,0.26458 0,0.0706 -0.01764,0.24695 0,0.17639 -0.03528,0.35278 -0.01764,0.17638 -0.08819,0.29986 -0.05292,0.14111 -0.15875,0.14111 -0.07055,0 -0.246944,0 -0.15875,0 -0.335139,-0.0176 -0.176389,-0.0176 -0.317501,-0.0529 -0.123472,-0.0353 -0.123472,-0.0882 -0.246944,-0.24695 -0.423333,-0.59973 -0.158751,-0.35277 -0.405695,-0.56444 -0.194028,-0.26458 -0.370417,-0.44097 -0.176389,-0.17639 -0.352778,-0.33514 -0.15875,-0.15875 -0.3175,-0.33514 -0.141112,-0.17639 -0.246945,-0.42333 -0.194028,-0.44098 -0.599723,-0.84667 -0.405694,-0.4057 -0.864306,-0.81139 -0.440972,-0.4057 -0.881945,-0.81139 -0.423333,-0.42333 -0.687917,-0.86431 0,-0.0529 -0.05292,-0.15875 -0.05292,-0.12347 -0.141111,-0.2293 -0.08819,-0.10584 -0.211667,-0.19403 -0.105833,-0.0882 -0.229305,-0.0882 -0.335139,0 -0.335139,0.52916 v 1.32292 0.68792 l 0.141111,0.98778 q 0,0.35277 -0.03528,0.49388 -0.01764,0.12348 -0.01764,0.38806 0,0.33514 0.194028,0.51153 0.211667,0.15875 0.511528,0.24694 0.299861,0.0882 0.635001,0.14111 0.352778,0.0353 0.652639,0.10584 0.299861,0.0705 0.493889,0.2293 0.211667,0.14111 0.211667,0.42334 0,0.14111 -0.08819,0.15875 -0.08819,0.0353 -0.211666,0.0353 h -2.010835 l -1.12889,0.15875 q -0.141111,-0.12348 -0.352778,-0.14112 -0.211667,-0.0176 -0.335139,-0.0176 h -0.335139 q -0.370417,0 -0.546806,-0.10584 -0.176389,-0.0882 -0.440972,-0.0882 H 58.39672 l -0.141111,0.19403 h -0.352778 q 0,-0.0706 -0.01764,-0.22931 0,-0.17639 0,-0.33514 -0.01764,-0.19403 -0.01764,-0.40569 0,-0.14112 0.15875,-0.24695 0.15875,-0.10583 0.282223,-0.10583 0.282222,0 0.370417,0 0.105833,0 0.123472,0 0.03528,-0.0176 0.03528,-0.0176 0.01764,0 0.105833,0 0.105833,-0.0176 0.335139,-0.0176 0.246945,0 0.740834,0 0.123472,0 0.211667,-0.0706 0.08819,-0.0882 0.141111,-0.19402 0.05292,-0.10584 0.07056,-0.21167 0.01764,-0.12347 0.01764,-0.17639 -0.03528,-0.0706 -0.05292,-0.14111 -0.05292,-0.10583 -0.05292,-0.24695 0,-0.26458 -0.03528,-0.42333 -0.01764,-0.17639 -0.07056,-0.29986 -0.03528,-0.12347 -0.07056,-0.21167 -0.01764,-0.10583 -0.01764,-0.24694 0,-0.12347 0.01764,-0.29986 0.03528,-0.17639 0.07056,-0.3175 0.05292,-0.17639 0.105833,-0.35278 v -1.18181 q 0,-0.10583 -0.03528,-0.24694 -0.01764,-0.14111 -0.15875,-0.28222 0,-0.21167 0.08819,-0.26459 0.05292,-0.0353 0.105833,-0.0353 -0.01764,-0.0705 -0.07055,-0.19402 -0.05292,-0.12348 -0.123473,-0.24695 -0.05292,-0.12347 -0.105833,-0.2293 -0.03528,-0.10584 -0.03528,-0.15875 0,-0.37042 -0.282222,-0.56445 -0.282223,-0.19403 -0.635001,-0.37042 -0.335139,-0.17639 -0.617361,-0.40569 -0.282223,-0.22931 -0.282223,-0.67028 0.07056,-0.17639 0.141111,-0.3175 0.07056,-0.12347 0.141112,-0.22931 0.08819,-0.10583 0.211666,-0.10583 z"
           style="font-family:Trattatello;-inkscape-font-specification:Trattatello;fill:#ffffff"
           id="path54345" />
        <path
           d="m 78.508362,112.17806 h 0.335139 0.49389 q 0.370417,0 0.617361,0.3175 0.264584,0.29987 0.405695,0.68792 0.15875,0.38806 0.229306,0.74083 0.07055,0.33514 0.07055,0.4057 0,0.14111 0.01764,0.22931 0.01764,0.0705 0.05292,0.14111 0.03528,0.0705 0.07055,0.12347 0,0.0529 -0.01764,0.12347 -0.03528,0.12347 -0.123473,0.21167 0,0.12347 -0.01764,0.24694 -0.01764,0.10584 -0.123472,0.10584 -0.08819,0 -0.282222,-0.19403 -0.194028,-0.21167 -0.405695,-0.45861 -0.246945,-0.29986 -0.546806,-0.67028 -0.194028,-0.10583 -0.529167,-0.22931 -0.3175,-0.12347 -0.617362,-0.2293 -0.370416,-0.12348 -0.758472,-0.22931 -0.564445,0 -1.12889,0.21167 -0.546806,0.21166 -1.005417,0.61736 -0.440973,0.40569 -0.758473,0.98778 -0.299861,0.58208 -0.352778,1.32292 0,0.35277 -0.07056,0.56444 -0.07055,0.21167 -0.07055,0.45861 0,0.24695 0.01764,0.42334 0.01764,0.15875 0.123472,0.40569 0.123472,0.37042 0.352778,0.79375 0.229306,0.42333 0.529167,0.79375 0.3175,0.35278 0.705556,0.59972 0.388056,0.22931 0.829028,0.22931 l 0.635001,-0.21167 q 0.246944,0 0.529167,-0.17639 0.299861,-0.19402 0.299861,-0.5468 v -0.35278 q -0.03528,-0.21167 -0.08819,-0.42333 -0.05292,-0.22931 -0.15875,-0.45862 -0.141112,-0.24694 -0.352778,-0.49388 -0.194028,-0.26459 -0.33514,-0.33514 -0.246944,-0.0882 -0.246944,-0.24695 0,-0.0705 0.07055,-0.10583 0.08819,-0.0529 0.194028,-0.0706 0.123473,-0.0176 0.282223,-0.0176 h 0.776111 0.846668 0.335139 q 0.123472,0 0.194028,-0.0176 0.08819,-0.0176 0.176389,-0.0353 0.08819,-0.0353 0.229305,-0.0529 0.141112,-0.0353 0.388056,-0.0353 0.123472,0.0353 0.229306,0.0882 0.08819,0.0353 0.15875,0.10583 0.08819,0.0706 0.08819,0.14111 0,0.10584 -0.08819,0.35278 -0.08819,0.22931 -0.194028,0.22931 h -0.194028 q -0.370417,0 -0.617361,0.28222 -0.229306,0.28222 -0.229306,0.51153 v 0.49389 0.52916 q 0,0.22931 -0.07056,0.35278 -0.07055,0.12347 -0.07055,0.38806 0.03528,0.14111 0.05292,0.28222 0.01764,0.12347 0,0.28222 0,0.14111 -0.05292,0.26458 0,0.12348 -0.08819,0.21167 -0.07055,0.0706 -0.15875,0.14111 -0.105833,0.0706 -0.246945,0.14111 l -1.181806,0.19403 h -0.282222 q -0.07056,0 -0.229306,-0.0353 -0.141111,-0.0176 -0.3175,-0.0705 -0.15875,-0.0353 -0.352778,-0.0706 -0.176389,-0.0176 -0.335139,-0.0176 h -0.476251 q -0.08819,0 -0.246944,-0.0353 -0.15875,-0.0353 -0.299862,-0.10584 -0.264583,-0.0882 -0.529167,-0.12347 -0.264583,-0.0353 -0.405694,-0.0353 -0.05292,-0.0705 -0.176389,-0.10583 -0.105834,-0.0529 -0.246945,-0.10583 -0.123472,-0.0529 -0.246945,-0.12348 -0.105833,-0.0705 -0.15875,-0.19402 -0.141111,-0.0529 -0.370417,-0.35278 -0.211666,-0.3175 -0.423333,-0.70556 -0.211667,-0.38805 -0.370417,-0.77611 -0.15875,-0.40569 -0.15875,-0.67028 v -0.29986 q 0,-0.14111 -0.105834,-0.33514 -0.08819,-0.21167 -0.08819,-0.35278 v -0.68791 -0.47625 q 0.105833,-0.28223 0.194028,-0.52917 0.07055,-0.21167 0.123472,-0.42333 0.07056,-0.22931 0.07056,-0.37042 l 0.141111,-0.29986 q 0,-0.38806 0.299861,-0.82903 0.299862,-0.44097 0.705556,-0.82903 0.423334,-0.38806 0.864306,-0.635 0.458612,-0.26458 0.776112,-0.26458 0.141111,-0.0176 0.264584,-0.0353 0.105833,-0.0176 0.211666,-0.0353 0.105834,-0.0176 0.176389,-0.0176 h 0.194028 q 0.264584,0 0.370417,-0.0176 0.123472,-0.0353 0.229306,-0.0705 0.105833,-0.0529 0.246944,-0.0706 0.158751,-0.0353 0.476251,-0.0353 h 0.687917 z"
           style="font-family:Trattatello;-inkscape-font-specification:Trattatello;fill:#ffffff"
           id="path54347" />
      </g>
      <g
         id="g54357"
         transform="matrix(1.3087124,0,0,1.3497805,-30.89727,-42.602796)"
         style="fill:#ffffff">
        <path
           d="m 98.645934,111.82529 q 0.599723,0 0.793751,0.33513 0.194028,0.33514 0.194028,0.70556 0,0.0529 -0.08819,0.15875 -0.07056,0.10583 -0.194028,0.21167 -0.105833,0.10583 -0.229306,0.19403 -0.105833,0.0705 -0.176389,0.0705 h -0.299861 q -0.123472,0 -0.211667,0.0176 -0.229305,0.0353 -0.3175,0.12347 -0.264583,0 -0.405695,0.12347 -0.123472,0.10584 -0.194028,0.28223 -0.07055,0.17639 -0.08819,0.38805 0,0.21167 0,0.38806 v 1.18181 1.27 q 0,0.19402 0.05292,0.29986 0.05292,0.10583 0.08819,0.19403 0.08819,0.10583 0.08819,0.21166 0.01764,0.10584 0.01764,0.22931 l -0.05292,0.58208 q 0,0.24695 0.07055,0.49389 0.07056,0.22931 0.07056,0.33514 l 0.211667,0.49389 v 0.49389 q 0,0.3175 0.299861,0.44097 0.3175,0.12347 0.670278,0.21167 0.370417,0.0705 0.670279,0.17639 0.3175,0.0882 0.3175,0.35277 0,0.52917 -0.493889,0.52917 h -0.635001 q -0.123472,0 -0.264583,0 -0.141112,0.0176 -0.282223,0.10584 l -1.464028,-0.10584 h -0.49389 -0.335139 q -0.05292,0 -0.246944,0.0176 -0.194028,0.0176 -0.423334,0.0353 -0.211667,0.0176 -0.405695,0.0353 -0.194028,0.0176 -0.246944,0.0176 -0.264584,0 -0.388056,-0.0353 -0.105834,-0.0353 -0.105834,-0.26459 0,-0.24694 0.123473,-0.52916 0.141111,-0.29986 0.511528,-0.29986 h 0.335139 0.687917 q 0.123472,0 0.194028,-0.0706 0.08819,-0.0882 0.105833,-0.19403 0.03528,-0.12347 0.03528,-0.2293 0.01764,-0.12348 0.01764,-0.19403 0,-0.22931 -0.105833,-0.54681 -0.08819,-0.3175 -0.08819,-0.44097 v -0.635 -0.52917 -0.49389 q 0,-0.0706 -0.03528,-0.2293 -0.01764,-0.17639 -0.07055,-0.33514 -0.05292,-0.17639 -0.123473,-0.29986 -0.05292,-0.12348 -0.123472,-0.12348 -0.03528,0 -0.15875,0.15875 -0.105833,0.14112 -0.264583,0.38806 -0.141112,0.22931 -0.33514,0.52917 -0.176389,0.28222 -0.352778,0.56444 -0.15875,0.28222 -0.299861,0.51153 -0.141111,0.22931 -0.211667,0.35278 -0.141111,0.10583 -0.246944,0.28222 -0.0882,0.17639 -0.15875,0.37042 -0.07056,0.17639 -0.123473,0.37041 -0.05292,0.17639 -0.105833,0.29987 -0.141111,0.24694 -0.282223,0.44097 -0.123472,0.17639 -0.211666,0.29986 -0.141112,0.29986 -0.194028,0.35278 -0.05292,0.0353 -0.194028,0.0353 -0.211667,0 -0.282223,-0.14112 -0.05292,-0.14111 -0.211666,-0.40569 l -0.141112,-1.07597 q -0.123472,-0.3175 -0.282222,-0.65264 -0.15875,-0.33514 -0.299861,-0.67028 -0.123473,-0.35278 -0.211667,-0.68792 -0.08819,-0.33514 -0.08819,-0.635 v -0.19403 q 0,-0.0705 -0.05292,-0.2293 -0.05292,-0.17639 -0.123473,-0.33514 -0.07055,-0.17639 -0.15875,-0.29986 -0.08819,-0.12347 -0.15875,-0.12347 -0.05292,0 -0.141111,0.15875 -0.08819,0.15875 -0.176389,0.37041 -0.07056,0.21167 -0.123472,0.44098 -0.05292,0.21166 -0.05292,0.3175 v 0.88194 0.33514 q -0.07056,0.45861 -0.141111,0.82903 -0.05292,0.3175 -0.105834,0.61736 -0.03528,0.29986 -0.03528,0.37042 0,0.49389 0.176389,0.67027 0.176389,0.17639 0.388055,0.22931 0.211667,0.0529 0.388056,0.10583 0.176389,0.0529 0.176389,0.3175 0,0.19403 -0.08819,0.28223 -0.07056,0.10583 -0.176389,0.14111 -0.105834,0.0529 -0.211667,0.0529 -0.105834,0.0176 -0.15875,0.0176 h -0.687917 l -1.675696,-0.29986 H 87.48051 87.180649 q -0.05292,0.0353 -0.123473,0.0529 -0.105833,0.0529 -0.229305,0.0529 h -0.33514 q -0.05292,0 -0.15875,-0.0176 -0.105833,-0.0176 -0.211666,-0.0706 -0.105834,-0.0353 -0.194028,-0.0882 -0.07056,-0.0529 -0.07056,-0.12348 0,-0.17639 0.123472,-0.29986 0.141112,-0.14111 0.299862,-0.2293 0.176389,-0.0882 0.335139,-0.12348 0.15875,-0.0353 0.211667,-0.0353 h 0.352778 q 0.05292,0 0.211666,-0.0176 0.158751,-0.0176 0.33514,-0.0529 0.194027,-0.0353 0.440972,-0.0705 0.123472,-0.12348 0.246945,-0.42334 0.123472,-0.3175 0.211666,-0.635 0.08819,-0.33514 0.141112,-0.59972 0.07055,-0.28222 0.07055,-0.35278 v -0.635 -0.19403 q 0.05292,-0.0529 0.08819,-0.15875 0.03528,-0.12347 0.05292,-0.24694 0.01764,-0.14111 0.01764,-0.28222 v -0.79376 q 0,-0.0706 0.01764,-0.21166 0.03528,-0.14111 0.07056,-0.28222 0.05292,-0.15875 0.105833,-0.33514 v -0.49389 q 0.03528,-0.10584 0.07056,-0.21167 0.03528,-0.0882 0.05292,-0.19403 0.01764,-0.10583 0.01764,-0.2293 v -0.38806 q 0,-0.0529 -0.05292,-0.2293 -0.05292,-0.19403 -0.123473,-0.38806 -0.07055,-0.22931 -0.15875,-0.51153 -0.08819,-0.12347 -0.246944,-0.2293 -0.15875,-0.10584 -0.299862,-0.21167 -0.105833,-0.0882 -0.264583,-0.15875 -0.141111,-0.0882 -0.229306,-0.24695 v -0.19402 q 0,-0.10584 0.08819,-0.15875 0.08819,-0.0529 0.211667,-0.0882 0.123472,-0.0353 0.299861,-0.0353 h 0.440972 q 0.176389,0 0.246945,-0.0176 0.08819,-0.0353 0.123472,-0.0705 0.03528,-0.0529 0.05292,-0.0706 0.01764,-0.0353 0.07056,-0.0353 h 0.829028 0.335139 l 0.493889,0.19402 q 0.176389,0.45862 0.370417,1.12889 0.211667,0.65264 0.423334,1.39348 0.211667,0.74083 0.405695,1.48166 0.211666,0.7232 0.388055,1.30528 0.194028,0.58209 0.335139,0.9525 0.141112,0.35278 0.229306,0.35278 0.03528,-0.0882 0.08819,-0.15875 0.03528,-0.0705 0.08819,-0.14111 0.07056,-0.0882 0.123472,-0.14111 0.264584,-0.89958 0.705557,-1.86972 0.458611,-0.97014 0.811389,-1.85209 0,-0.37042 0.211667,-0.635 0.229305,-0.28222 0.47625,-0.65264 0.05292,-0.12347 0.07056,-0.3175 0.01764,-0.21167 0.05292,-0.40569 0.05292,-0.21167 0.15875,-0.38806 0.105834,-0.17639 0.352779,-0.24694 h 0.687917 l 0.246944,0.14111 q 0.246945,0 0.458612,-0.0353 0.211666,-0.0529 0.405694,-0.10583 0.194028,-0.0706 0.405695,-0.15875 z"
           style="font-family:Trattatello;-inkscape-font-specification:Trattatello;fill:#ffffff"
           id="path54351" />
        <path
           d="m 106.51592,111.73709 q 0.38805,0 0.58208,0.17639 0.19403,0.15875 0.26458,0.42333 0.0882,0.26459 0.10584,0.58209 0.0353,0.29986 0.0706,0.58208 v 0.635 q 0.10584,0.19403 0.26459,0.52917 0.17639,0.3175 0.17639,0.65264 v 0.44097 q 0,0.0529 0.0882,0.3175 0.0882,0.26458 0.19403,0.58208 0.12347,0.3175 0.21167,0.61737 0.0882,0.28222 0.0882,0.38805 0,0.33514 0.0882,0.89959 0.0882,0.5468 0.22931,1.07597 0.14111,0.52917 0.3175,0.91722 0.19403,0.38806 0.40569,0.38806 0.24695,0 0.38806,0.0529 0.14111,0.0529 0.24695,0.0529 0.0529,0 0.17638,0.0176 0.14112,0.0176 0.28223,0.0706 0.15875,0.0529 0.26458,0.15875 0.10583,0.0882 0.10583,0.24694 0,0.35278 -0.24694,0.49389 -0.24695,0.14111 -0.58208,0.14111 l -1.18181,-0.0529 h -0.49389 -0.88195 -0.38805 l -0.49389,0.0529 q -0.10583,0 -0.35278,-0.0176 -0.2293,-0.0176 -0.2293,-0.14111 0,-0.24694 0.21166,-0.40569 0.22931,-0.15875 0.52917,-0.26459 0.24694,-0.0882 0.40569,-0.19403 0.17639,-0.10583 0.17639,-0.35277 0,-0.0529 -0.0529,-0.26459 -0.0353,-0.21166 -0.10584,-0.44097 -0.0529,-0.24694 -0.14111,-0.42333 -0.0705,-0.19403 -0.14111,-0.19403 -0.0529,-0.17639 -0.0882,-0.38806 -0.0176,-0.21166 -0.0706,-0.37041 -0.0353,-0.17639 -0.14111,-0.26459 -0.0882,-0.0882 -0.28222,-0.0529 h -0.59973 q -0.0529,0 -0.21166,0 -0.14111,0 -0.29986,0.0176 -0.15875,0.0176 -0.3175,0.0529 -0.14112,0.0176 -0.19403,0.0706 -0.22931,0.10583 -0.19403,0.3175 0.0529,0.19403 0.0529,0.42333 -0.0529,0.0706 -0.15875,0.28222 -0.10584,0.19403 -0.21167,0.42334 -0.0882,0.2293 -0.15875,0.42333 -0.0706,0.19403 -0.0706,0.24695 0,0.21166 0.10584,0.29986 0.12347,0.0882 0.26458,0.17639 0.14111,0.0705 0.24695,0.21166 0.12347,0.14111 0.12347,0.47625 0,0.10584 -0.0706,0.17639 -0.0705,0.0529 -0.17639,0.0882 -0.0882,0.0176 -0.19402,0.0353 -0.0882,0 -0.14112,0 0,0.0529 -0.0353,0.0706 -0.0353,0.0176 -0.10584,0.0176 -0.0529,0 -0.15875,-0.0882 -0.0705,0 -0.19402,0 -0.10584,0 -0.22931,-0.0176 l -0.3175,-0.0353 q -0.22931,0 -0.37042,0.0529 -0.14111,0.0529 -0.37041,0.0529 -0.24695,0 -0.35278,0.0176 -0.10584,0.0353 -0.15875,0.0529 -0.0353,0.0353 -0.0529,0.0529 -0.0176,0.0176 -0.0705,0.0176 -0.0882,0 -0.31751,-0.0176 -0.21166,-0.0176 -0.44097,-0.0705 -0.2293,-0.0353 -0.40569,-0.10584 -0.15875,-0.0882 -0.15875,-0.19402 0,-0.33514 0.19403,-0.56445 0.21166,-0.2293 0.5468,-0.2293 l 0.33514,-0.0882 q 0.0353,0 0.12347,-0.0529 0.10584,-0.0706 0.21167,-0.15875 0.10583,-0.0882 0.21167,-0.17638 0.12347,-0.10584 0.19402,-0.15876 0.10584,-0.44097 0.37042,-0.9525 0.28222,-0.52916 0.51153,-1.00541 0.10583,-0.29986 0.26458,-0.61736 0.17639,-0.33514 0.3175,-0.56445 0.17639,-0.33514 0.29986,-0.65264 0.12348,-0.3175 0.22931,-0.635 0.10583,-0.33514 0.22931,-0.67028 0.12347,-0.33514 0.28222,-0.68791 0.12347,-0.26459 0.19403,-0.56445 0.0705,-0.3175 0.12347,-0.635 0.0705,-0.33514 0.15875,-0.67028 0.10583,-0.33514 0.26458,-0.67028 0.10584,-0.0882 0.22931,-0.21166 0.12347,-0.12348 0.35278,-0.22931 z m -0.21167,3.22792 q -0.12347,0 -0.22931,0.10583 -0.0882,0.10584 -0.15875,0.24695 -0.0705,0.12347 -0.10583,0.26458 -0.0353,0.12347 -0.0353,0.17639 0,0.15875 0,0.24695 0,0.0706 -0.0176,0.14111 -0.0176,0.0529 -0.0529,0.15875 -0.0176,0.10583 -0.0706,0.33514 v 0.14111 q 0,0.10583 0.15875,0.21166 0.15875,0.0882 0.28222,0.0882 0.0529,0 0.15875,0 0.12348,0 0.22931,-0.0176 0.12347,-0.0176 0.21167,-0.0706 0.0882,-0.0529 0.0882,-0.15875 0,-0.2293 -0.12347,-0.35277 -0.12347,-0.12348 -0.12347,-0.24695 v -0.77611 q 0,-0.10583 -0.0706,-0.29986 -0.0529,-0.19403 -0.14111,-0.19403 z"
           style="font-family:Trattatello;-inkscape-font-specification:Trattatello;fill:#ffffff"
           id="path54353" />
        <path
           d="m 120.38588,112.17806 q 0.37042,0 0.61736,0.28223 0.26458,0.28222 0.26458,0.5468 0,0.3175 -0.3175,0.47625 -0.29986,0.14111 -0.68791,0.21167 -0.37042,0.0529 -0.7232,0.0529 -0.33514,0 -0.38805,0 -0.14112,0.10583 -0.42334,0.28222 -0.26458,0.15875 -0.40569,0.29986 -0.21167,0.21167 -0.45861,0.49389 -0.22931,0.28222 -0.44098,0.5468 -0.19402,0.26459 -0.33514,0.49389 -0.14111,0.22931 -0.14111,0.33514 0,0.14111 0.0882,0.24695 0.0882,0.10583 0.21166,0.33514 0.12348,0.21166 0.28223,0.40569 0.17639,0.17639 0.33514,0.33514 0.15875,0.15875 0.29986,0.28222 0.14111,0.10584 0.21166,0.15875 0.12348,0.12348 0.26459,0.33514 0.14111,0.21167 0.28222,0.44097 0.15875,0.22931 0.3175,0.45862 0.15875,0.21166 0.35278,0.33514 0.14111,0.14111 0.35278,0.3175 0.2293,0.17638 0.44097,0.37041 0.24694,0.21167 0.52917,0.44098 h 0.35277 q 0.14111,0 0.38806,-0.0176 0.24694,-0.0176 0.38805,0.15875 0.0882,0.10583 0.21167,0.38805 0.12347,0.26459 0.10584,0.54681 0,0.26458 -0.24695,0.47625 -0.22931,0.2293 -0.84667,0.24694 -0.29986,0 -0.47625,-0.0176 -0.17639,0 -0.3175,-0.0353 -0.14111,-0.0353 -0.29986,-0.10584 -0.14111,-0.0705 -0.38805,-0.17639 l -0.33514,-0.19402 q -0.22931,-0.0882 -0.44098,-0.28223 -0.19402,-0.19402 -0.38805,-0.45861 -0.37042,-0.40569 -0.84667,-0.97014 -0.45861,-0.58208 -0.82903,-1.09361 -0.24694,-0.44097 -0.51153,-0.82903 -0.26458,-0.40569 -0.51152,-0.635 -0.26459,-0.19403 -0.49389,-0.19403 -0.10584,0 -0.22931,0.10584 -0.10583,0.10583 -0.10583,0.19403 0,0.29986 0.0882,0.635 0.10584,0.3175 0.10584,0.52916 v 0.35278 l 0.14111,0.33514 v 0.49389 q 0,0.49389 0.28222,0.72319 0.28222,0.22931 0.61736,0.33514 0.35278,0.10584 0.635,0.17639 0.28222,0.0529 0.28222,0.22931 0,0.21166 -0.10583,0.35278 -0.10583,0.14111 -0.24694,0.2293 -0.14112,0.0882 -0.28223,0.12347 -0.12347,0.0353 -0.15875,0.0353 l -0.24694,-0.0882 q -0.10583,0 -0.14111,0.0353 -0.0176,0.0529 -0.0882,0.0529 h -0.88194 q -0.15875,-0.0176 -0.29986,-0.0705 -0.12348,-0.0353 -0.24695,-0.0882 -0.12347,-0.0529 -0.19403,-0.14111 h -0.49388 q -0.0706,0 -0.33514,0.0706 -0.26459,0.0529 -0.58209,0.12347 -0.3175,0.0882 -0.65264,0.14111 -0.3175,0.0706 -0.49389,0.0706 h -0.19402 q -0.14112,0 -0.29987,-0.0882 -0.15875,-0.0705 -0.19402,-0.26458 0,-0.10584 0.0705,-0.28223 0.0882,-0.19402 0.21167,-0.37041 0.14111,-0.19403 0.28222,-0.33514 0.14111,-0.14111 0.28222,-0.14111 h 0.14111 l 0.54681,-0.14111 h 0.635 q 0.10583,0 0.12347,-0.10584 0.0176,-0.12347 0.0176,-0.24694 v -0.33514 q 0.0176,-0.10583 0.0353,-0.21167 0.0353,-0.2293 -0.0353,-0.42333 -0.0882,-0.33514 -0.0529,-0.635 0.0529,-0.3175 0.0529,-0.54681 v -0.33514 -0.68791 q 0,-0.22931 -0.0176,-0.44098 -0.0176,-0.2293 -0.12347,-0.35277 v -0.82903 q 0.0353,-0.24695 0.0706,-0.44098 0.0353,-0.17638 0.0529,-0.33513 0.0176,-0.15875 0.0176,-0.24695 0,-0.5468 -0.28222,-0.75847 -0.28222,-0.21167 -0.635,-0.29986 -0.33514,-0.0882 -0.61736,-0.15875 -0.28222,-0.0882 -0.28222,-0.4057 0,-0.21166 0.10583,-0.33514 0.12347,-0.14111 0.28222,-0.21166 0.15875,-0.0882 0.33514,-0.10584 0.17639,-0.0353 0.3175,-0.0353 h 0.28222 0.19403 q 0.0529,0 0.19403,0.0353 0.14111,0.0176 0.28222,0.0529 0.15875,0.0176 0.29986,0.0353 0.14111,0.0176 0.21167,0.0176 h 0.49389 l 0.68792,-0.14112 q 0.21166,0 0.49389,0.12348 0.28222,0.12347 0.28222,0.42333 0,0.10583 -0.0176,0.19403 0,0.0882 -0.0706,0.0882 -0.15875,0 -0.3175,0.0882 -0.14111,0.0882 -0.28222,0.2293 -0.12347,0.12348 -0.21167,0.3175 -0.0705,0.17639 -0.0705,0.35278 v 0.33514 q 0,0.17639 0.0882,0.58208 0.0529,0.21167 0.10584,0.45862 v 0.14111 q 0.0353,0.10583 0.0882,0.17639 0.0353,0.0706 0.0882,0.12347 0.0529,0.0529 0.10583,0.0529 0.0882,0 0.14111,-0.0706 0.0706,-0.0706 0.15875,-0.17639 0.29986,-0.38806 0.68792,-1.12889 0.19402,-0.33514 0.37041,-0.67028 0.17639,-0.35278 0.37042,-0.65264 0.24695,-0.45861 0.49389,-0.72319 0.24694,-0.26459 0.42333,-0.26459 h 0.21167 q 0.14111,0 0.19403,-0.0705 0.0705,-0.0706 0.28222,-0.0706 z"
           style="font-family:Trattatello;-inkscape-font-specification:Trattatello;fill:#ffffff"
           id="path54355" />
      </g>
      <g
         id="g54365"
         transform="matrix(0.73124704,0,0,0.6287515,-58.458811,54.512881)"
         style="fill:#ffffff">
        <path
           d="m 143.2346,112.37209 q 0.91722,0 1.78152,0.29986 0.86431,0.29986 1.53459,0.86431 0.68792,0.54681 1.09361,1.35819 0.4057,0.79376 0.4057,1.78153 l -0.14112,0.84667 v 1.16417 q 0,0.12347 -0.10583,0.33514 -0.10583,0.21166 -0.10583,0.35278 -0.10584,0.2293 -0.19403,0.45861 -0.0882,0.19402 -0.19403,0.42333 -0.10583,0.21167 -0.24694,0.4057 -0.0706,0.14111 -0.24695,0.3175 -0.15875,0.17638 -0.38805,0.33513 -0.21167,0.15875 -0.44098,0.26459 -0.2293,0.10583 -0.44097,0.10583 h -0.33514 q -0.19403,0 -0.38805,0.0529 -0.19403,0.0529 -0.38806,0.12347 -0.17639,0.0529 -0.3175,0.10583 -0.14111,0.0529 -0.19403,0.0529 h -0.47625 q -0.29986,0 -0.52916,0.0882 -0.21167,0.0706 -0.37042,0.0706 h -0.635 -1.51695 -0.29986 q -0.10583,0.0529 -0.19403,0.10583 -0.17639,0.0882 -0.33514,0.0882 l -0.49389,-0.19403 h -0.49388 l -0.47625,0.19403 q -0.12348,0 -0.33514,-0.12347 -0.19403,-0.10584 -0.3175,-0.22931 -0.0706,0 -0.21167,0 -0.14111,-0.0176 -0.28222,-0.0529 -0.12348,-0.0529 -0.22931,-0.14111 -0.10583,-0.10583 -0.10583,-0.28222 0,-0.14111 0.12347,-0.26458 0.12347,-0.12348 0.28222,-0.21167 0.19403,-0.10583 0.42334,-0.21167 h 0.49389 l 0.82902,-0.19402 q 0.14111,0.0529 0.26459,0.10583 0.2293,0.0882 0.38805,0.0882 0.17639,0 0.26459,-0.10583 0.10583,-0.12347 0.14111,-0.28222 0.0529,-0.15875 0.0529,-0.3175 0.0176,-0.17639 0.0176,-0.28223 v -0.33513 -0.74084 q 0,-0.0705 -0.0705,-0.21167 -0.0353,-0.0705 -0.0706,-0.12347 v -1.09361 q 0,-0.14111 0.0706,-0.35278 0.0705,-0.21166 0.0705,-0.47625 v -0.68791 -0.82903 q 0,-0.47625 -0.15875,-0.79375 -0.15875,-0.33514 -0.67028,-0.33514 -0.10583,0 -0.17638,0.0353 -0.0706,0.0176 -0.14112,0.0529 -0.0529,0.0176 -0.12347,0.0353 -0.0705,0.0176 -0.19403,0.0176 l -0.49388,-0.14111 h -0.33514 q -0.12348,0 -0.3175,-0.10584 -0.17639,-0.12347 -0.17639,-0.2293 0,-0.26459 0.28222,-0.45861 0.29986,-0.19403 0.67028,-0.3175 0.37041,-0.14111 0.72319,-0.19403 0.35278,-0.0706 0.47625,-0.0706 h 0.29986 q 0.14112,0 0.26459,0.10584 0.12347,0.0882 0.26458,0.0882 0.14111,-0.0353 0.26458,-0.0882 0.10584,-0.0353 0.21167,-0.0706 0.12347,-0.0353 0.21167,-0.0353 h 0.65264 0.33514 q 0.35277,-0.0353 0.65264,-0.0705 0.24694,-0.0353 0.47625,-0.0529 0.24694,-0.0176 0.33514,-0.0176 z m -0.82903,1.71098 q -0.0529,0 -0.21167,0.0705 -0.15875,0.0706 -0.33514,0.19403 -0.15875,0.12347 -0.29986,0.26458 -0.12347,0.14111 -0.12347,0.26459 0.0353,0.0353 0.0705,0.0882 0.0706,0.10583 0.0706,0.24694 v 0.49389 0.97014 2.16959 0.82903 q 0.0705,0.14111 0.0882,0.29986 0.0176,0.15875 0.0353,0.29986 0.0353,0.14111 0.10583,0.24694 0.0706,0.10584 0.26459,0.14112 h 0.19403 q 0.0529,0 0.17638,-0.0176 0.14112,-0.0176 0.28223,-0.0353 0.15875,-0.0176 0.29986,-0.0353 0.14111,-0.0176 0.21167,-0.0176 0.75847,-0.0176 1.27,-0.33514 0.52916,-0.33514 0.8643,-0.82903 0.33514,-0.49389 0.49389,-1.05833 0.15875,-0.56444 0.17639,-1.05833 0.0176,-0.38806 -0.17639,-0.93487 -0.19403,-0.5468 -0.47625,-1.00541 -0.28222,-0.47625 -0.58208,-0.7232 -0.29986,-0.26458 -0.47625,-0.0882 -0.10584,-0.0706 -0.19403,-0.14111 -0.0882,-0.0529 -0.17639,-0.10584 -0.0706,-0.0529 -0.12347,-0.0529 h -0.15875 z"
           style="font-family:Trattatello;-inkscape-font-specification:Trattatello;fill:#ffffff"
           id="path54359" />
        <path
           d="m 152.31559,112.37209 q 0.10583,0 0.19403,0.0176 0.10583,0.0176 0.2293,0.0353 0.14111,0 0.3175,0.0176 0.19403,0.0176 0.49389,0.0176 l 0.58209,-0.14112 q 0.14111,-0.0353 0.26458,-0.0705 0.10583,-0.0353 0.21167,-0.0529 0.10583,-0.0176 0.15875,-0.0176 0.12347,0 0.29986,0.0882 0.19403,0.0882 0.33514,0.19403 0.12347,0.2293 0.15875,0.5468 0.0353,0.3175 0.14111,0.54681 0.0529,0.0529 0.12347,0.21166 0.0706,0.14112 0.14111,0.28223 0.0706,0.19403 0.17639,0.38805 0,0.33514 -0.44097,0.33514 -0.10583,0 -0.3175,-0.15875 -0.21167,-0.17639 -0.54681,-0.37041 -0.33514,-0.21167 -0.79375,-0.37042 -0.45861,-0.17639 -1.09361,-0.17639 l -0.33514,0.0882 q -0.10583,0.15875 -0.21167,0.26459 -0.0882,0.10583 -0.0882,0.17639 v 0.15875 q -0.0353,0.14111 -0.0706,0.26458 -0.0353,0.10583 -0.0529,0.21167 -0.0176,0.10583 -0.0176,0.15875 v 1.27 q 0,0.26458 0.10583,0.51153 0.10584,0.2293 0.33514,0.2293 0.0529,0 0.17639,-0.0176 0.12347,-0.0176 0.26458,-0.0529 0.15875,-0.0353 0.33514,-0.0706 h 0.35278 q 0.14111,0 0.24695,-0.0706 0.12347,-0.0705 0.2293,-0.14111 0.10583,-0.0882 0.19403,-0.15875 0.10583,-0.0705 0.21167,-0.0705 0.0529,0 0.12347,0.0705 0.0705,0.0706 0.14111,0.15875 l 0.17639,0.21167 v 1.16417 q 0,0.49389 -0.44097,0.49389 -0.19403,0 -0.33514,-0.0706 -0.14111,-0.0882 -0.24695,-0.17639 -0.19403,-0.0705 -0.33514,-0.15875 -0.12347,-0.0882 -0.3175,-0.0882 h -0.28222 -0.35278 q -0.44097,0 -0.56444,0.15875 -0.12347,0.15875 -0.12347,0.635 v 0.44097 q 0.0529,0.24695 0.0705,0.49389 0.0176,0.24694 0.0529,0.45861 0.0529,0.21167 0.17639,0.37042 0.12347,0.14111 0.38805,0.19403 h 0.98778 q 0.24695,0 0.52917,-0.0882 0.29986,-0.10583 0.59972,-0.26458 0.29986,-0.10584 0.54681,-0.19403 0.26458,-0.0882 0.47625,-0.0882 0.0705,0.0529 0.14111,0.12347 0.0529,0.0529 0.10583,0.10583 0.0529,0.0529 0.0529,0.10583 0,0.12348 -0.0882,0.22931 -0.0882,0.10583 -0.21166,0.21167 -0.24695,0.2293 -0.35278,0.47625 -0.10583,0.2293 -0.21167,0.44097 -0.0882,0.19403 -0.2293,0.3175 -0.14112,0.14111 -0.42334,0.14111 -0.10583,0 -0.19403,-0.0353 -0.0882,-0.0176 -0.19402,-0.0705 -0.0882,-0.0353 -0.22931,-0.0706 -0.12347,-0.0176 -0.3175,-0.0176 l -1.71097,0.0529 -0.59973,0.14111 h -0.93486 -0.52916 l -0.35278,0.10584 -0.52917,0.0353 q -0.0882,0 -0.19403,-0.0705 -0.10583,-0.0706 -0.19402,-0.17639 -0.0882,-0.0882 -0.15876,-0.17639 -0.0529,-0.10583 -0.0529,-0.15875 0,-0.44097 0.65264,-0.44097 0.14111,-0.0529 0.28222,-0.12348 0.26458,-0.12347 0.44097,-0.17638 0.37042,-0.0706 0.49389,-0.22931 0.14111,-0.15875 0.14111,-0.74083 0,-0.0882 0.0529,-0.17639 0.0706,-0.10584 -0.0529,-0.21167 0,-0.0882 -0.0176,-0.17639 -0.0176,-0.10583 -0.0529,-0.19403 -0.0353,-0.10583 -0.0706,-0.2293 v -0.33514 -0.635 -0.44097 l 0.14111,-1.23473 v -0.29986 q 0,-0.10583 0.0176,-0.14111 0.0353,-0.0353 0.0353,-0.14111 v -0.93486 -0.49389 -0.52917 q 0,-0.15875 -0.17639,-0.24694 -0.17639,-0.10584 -0.26458,-0.10584 h -0.49389 q -0.33514,0 -0.49389,-0.28222 -0.14111,-0.28222 -0.14111,-0.65264 0,-0.10583 0.0882,-0.19403 0.10584,-0.0882 0.21167,-0.0882 h 0.58208 0.35278 q 0.10583,0 0.3175,-0.0176 0.22931,-0.0353 0.56445,-0.0353 z"
           style="font-family:Trattatello;-inkscape-font-specification:Trattatello;fill:#ffffff"
           id="path54361" />
        <path
           d="m 161.07441,112.17806 q 0.22931,0 0.35278,0.0353 0.14111,0.0353 0.14111,0.24695 0,0.33514 -0.21166,0.49389 -0.21167,0.15875 -0.47625,0.24694 -0.26459,0.0882 -0.47625,0.17639 -0.21167,0.0882 -0.21167,0.26458 0,0.14111 0.0529,0.3175 0.0529,0.17639 0.10583,0.33514 0.0705,0.15875 0.14111,0.26459 0.0882,0.10583 0.14111,0.10583 0.12347,0.12347 0.21167,0.26458 0.0882,0.12347 0.15875,0.26459 0.0705,0.12347 0.0705,0.26458 0,0.0529 0.0706,0.28222 0.0882,0.21167 0.21167,0.52917 0.12347,0.29986 0.26458,0.65264 0.15875,0.35278 0.3175,0.65264 0.17639,0.28222 0.33514,0.47625 0.15875,0.19403 0.28222,0.19403 0.10584,0 0.21167,-0.17639 0.12347,-0.17639 0.21167,-0.38806 0.10583,-0.24694 0.21166,-0.56444 0.12347,-0.17639 0.37042,-0.635 0.26458,-0.47625 0.51153,-1.02306 0.24694,-0.54681 0.44097,-1.0407 0.19403,-0.51152 0.19403,-0.77611 0,-0.19403 -0.12347,-0.24694 -0.10584,-0.0706 -0.21167,-0.14111 -0.12347,-0.0353 -0.24695,-0.12348 -0.10583,-0.0882 -0.10583,-0.26458 0,-0.17639 0.10583,-0.28222 0.10584,-0.10583 0.24695,-0.14111 0.15875,-0.0529 0.28222,-0.0529 0.14111,-0.0176 0.19403,-0.0176 h 0.84667 q 0.0529,0 0.10583,0.0176 0.0529,0.0176 0.0882,0.0353 0.0529,0.0176 0.0882,0.0353 0.38805,0 0.56444,-0.0176 0.19403,-0.0176 0.29986,-0.0353 0.12348,-0.0353 0.22931,-0.0529 0.12347,-0.0353 0.38806,-0.0353 l 0.33514,0.0529 0.35277,-0.0529 q 0.21167,0 0.37042,0.12348 0.15875,0.12347 0.15875,0.42333 0,0.19403 -0.0706,0.3175 -0.0705,0.10583 -0.17638,0.15875 -0.10584,0.0529 -0.24695,0.0882 -0.14111,0.0353 -0.28222,0.0705 -0.4057,0.0706 -0.82903,0.17639 -0.42333,0.0882 -0.59972,0.45861 l -0.0882,0.38806 q -0.0353,0.0529 -0.14111,0.19403 -0.0882,0.14111 -0.19403,0.3175 -0.10583,0.17638 -0.21166,0.38805 -0.0882,0.19403 -0.14111,0.37042 -0.0529,0.10583 -0.12348,0.19403 -0.0529,0.0882 -0.12347,0.17639 -0.0529,0.0705 -0.10583,0.12347 -0.10584,0.26458 -0.26459,0.59972 -0.14111,0.3175 -0.37041,0.58208 -0.44097,1.0407 -0.75848,1.92264 -0.14111,0.37042 -0.28222,0.75848 -0.14111,0.38805 -0.24694,0.72319 -0.10584,0.3175 -0.17639,0.58209 -0.0529,0.24694 -0.0529,0.37041 v 0.49389 q 0,0.26459 -0.0705,0.44097 -0.0529,0.19403 -0.42334,0.19403 -0.14111,0 -0.29986,-0.0176 -0.14111,-0.0176 -0.28222,-0.12347 -0.22931,-0.10583 -0.26458,-0.24694 -0.0176,-0.14111 -0.12348,-0.24695 -0.15875,-0.21167 -0.15875,-0.38805 -0.0353,-0.19403 -0.0705,-0.33514 -0.0353,-0.15875 -0.12347,-0.29986 0,-0.12348 -0.10584,-0.3175 -0.0882,-0.21167 -0.0882,-0.3175 -0.19403,-0.33514 -0.3175,-0.63501 -0.10584,-0.3175 -0.22931,-0.635 -0.12347,-0.3175 -0.28222,-0.65264 -0.14111,-0.35277 -0.4057,-0.74083 -0.0353,-0.17639 -0.0882,-0.35278 -0.0353,-0.14111 -0.0706,-0.28222 -0.0353,-0.15875 -0.0705,-0.24694 l -0.15875,-0.44098 q -0.0353,-0.10583 -0.17639,-0.29986 -0.12347,-0.19403 -0.26458,-0.38805 -0.17639,-0.21167 -0.38806,-0.47625 -0.0882,-0.67028 -0.3175,-1.25237 -0.21167,-0.58208 -0.61736,-0.81139 -0.88195,-0.45861 -0.88195,-0.79375 0,-0.28222 0.49389,-0.28222 h 0.33514 q 0.24695,0 0.59972,-0.0882 0.19403,-0.0529 0.38806,-0.10584 h 0.635 l 0.44097,0.0882 0.3175,-0.0353 q 0.12348,-0.0176 0.22931,-0.0353 0.12347,-0.0176 0.19403,-0.0176 z"
           style="font-family:Trattatello;-inkscape-font-specification:Trattatello;fill:#ffffff"
           id="path54363" />
      </g>
      <g
         id="g54381"
         transform="matrix(0.73124704,0,0,0.6287515,-59.385944,54.512881)"
         style="fill:#ffffff">
        <path
           d="m 175.87483,115.01793 -0.0529,-0.29986 0.0529,-0.97014 q 0,-0.0529 -0.0882,-0.10584 -0.0705,-0.0705 -0.19402,-0.12347 -0.10584,-0.0529 -0.22931,-0.0882 -0.10583,-0.0353 -0.17639,-0.0353 h -0.49389 q -0.0705,0 -0.21166,0.0353 -0.14112,0.0176 -0.29987,0.0705 -0.14111,0.0353 -0.28222,0.0706 -0.14111,0.0176 -0.19403,0.0176 -0.24694,0 -0.28222,-0.10584 -0.0529,-0.12347 -0.0529,-0.2293 0,-0.17639 0.17639,-0.37042 0.17639,-0.19403 0.4057,-0.33514 0.2293,-0.14111 0.44097,-0.22931 0.22931,-0.10583 0.29986,-0.10583 h 0.19403 0.49389 q 0.17639,0 0.28222,0.0353 0.10584,0.0353 0.17639,0.0705 0.0882,0.0353 0.14111,0.0706 0.0706,0.0353 0.17639,0.0353 0.0706,0 0.4057,-0.0353 0.33513,-0.0529 0.74083,-0.10583 0.40569,-0.0706 0.77611,-0.10584 0.38806,-0.0529 0.58209,-0.0529 h 0.35277 q 0.10584,0 0.28223,0.0353 0.19402,0.0353 0.19402,0.26459 0,0.3175 -0.28222,0.40569 -0.28222,0.0882 -0.61736,0.19403 -0.33514,0.0882 -0.61736,0.29986 -0.28222,0.21167 -0.28222,0.75848 -0.0176,0.0529 -0.0353,0.12347 -0.0176,0.0529 -0.0176,0.12347 0,0.0706 0,0.14111 0.0705,0.21167 -0.10583,0.54681 -0.0882,0.40569 -0.0882,0.635 0.0529,0.0353 0.10583,0.0882 0.0706,0.0706 0.14112,0.21167 0,0.10583 0,0.19403 0,0.0882 0.0176,0.15875 0,0.0705 0.0176,0.14111 0.0353,0.3175 0.0176,0.58208 -0.0176,0.24695 -0.0529,0.49389 -0.0176,0.22931 -0.0353,0.45861 0,0.22931 0.0353,0.47625 l -0.0529,0.88195 0.0529,0.28222 -0.10584,0.54681 q 0.0353,0.29986 -0.0705,0.9525 -0.10584,0.635 -0.29986,1.35819 -0.17639,0.7232 -0.4057,1.3582 -0.22931,0.65264 -0.40569,0.93486 -0.3175,0.40569 -0.82903,0.635 -0.51153,0.24694 -0.9525,0.35278 -0.42334,0.12347 -0.635,0.15875 -0.19403,0.0353 0.12347,0.0353 h -0.35278 q -0.0529,0 -0.22931,0.0176 -0.17638,0.0353 -0.38805,0.0529 -0.21167,0.0353 -0.42333,0.0529 -0.21167,0.0176 -0.33514,0.0176 -0.19403,0 -0.47625,-0.0353 -0.28223,-0.0353 -0.54681,-0.14111 -0.26458,-0.10584 -0.44097,-0.3175 -0.19403,-0.19403 -0.19403,-0.52917 0,-0.10583 0.15875,-0.3175 0.15875,-0.21167 0.35278,-0.42333 0.21166,-0.24695 0.51153,-0.52917 0.0529,-0.0882 0.12347,-0.12347 0.0529,-0.0176 0.10583,-0.0529 0.0706,-0.0176 0.12347,-0.0353 0.10584,0 0.22931,0.0176 0.10583,0.0353 0.24694,0.19403 0.26459,0.17639 0.44098,0.35278 0.15875,0.17639 0.35277,0.29986 0.17639,0.14111 0.4057,0.2293 0.22931,0.0882 0.61736,0.0882 0.10583,-0.0882 0.21167,-0.17639 0.0882,-0.0882 0.19403,-0.15875 0.12347,-0.0706 0.2293,-0.15875 0.3175,-0.3175 0.49389,-0.7232 0.19403,-0.38805 0.28222,-0.82902 0.10584,-0.42334 0.12348,-0.84667 0.0353,-0.44097 0.0353,-0.82903 0.0529,-0.0529 0.0882,-0.19403 0.0353,-0.14111 0.0353,-0.3175 0,-0.17639 -0.0176,-0.35278 -0.0176,-0.17638 -0.0529,-0.3175 v -0.33513 -0.98778 -2.69875 z"
           style="font-family:Trattatello;-inkscape-font-specification:Trattatello;fill:#ffffff"
           id="path54367" />
        <path
           d="m 184.20149,112.21334 0.635,0.15875 h 0.35278 q 0.2293,0.0706 0.42333,0.14111 0.17639,0.0706 0.33514,0.14111 0.15875,0.0529 0.21167,0.10584 0.26458,0.14111 0.59972,0.24694 0.35278,0.0882 0.58208,0.33514 0.14111,0.12347 0.28222,0.42333 0.15875,0.29987 0.29987,0.42334 0.59972,0.51153 0.75847,0.98778 0.17639,0.45861 0.17639,0.82903 l -0.0529,1.16416 v 0.49389 q 0,0.19403 -0.15875,0.58209 -0.14111,0.38805 -0.35278,0.81139 -0.19403,0.42333 -0.37041,0.79375 -0.17639,0.35277 -0.22931,0.45861 -0.12347,0.37041 -0.44097,0.61736 -0.29986,0.2293 -0.59973,0.37042 -0.47625,0.37041 -0.89958,0.67027 -0.40569,0.29987 -0.91722,0.29987 -0.21167,0 -0.42334,-0.0529 -0.19402,-0.0353 -0.5468,-0.0353 -0.0706,0 -0.17639,0 -0.10583,0.0176 -0.22931,0.0353 -0.14111,0.0176 -0.28222,0.0176 h -0.29986 q -0.14111,0 -0.37042,-0.0529 -0.21166,-0.0529 -0.40569,-0.14111 -0.22931,-0.0882 -0.49389,-0.21167 -0.47625,-0.21166 -0.97014,-0.45861 -0.49389,-0.26458 -0.79375,-0.86431 -0.37042,-0.88194 -0.68792,-1.83444 -0.29986,-0.9525 -0.29986,-1.83445 0,-0.17639 0.0353,-0.3175 0.0353,-0.14111 0.0882,-0.28222 0.0529,-0.15875 0.12347,-0.3175 0.0706,-0.15875 0.14112,-0.40569 0,-0.26459 0.0705,-0.49389 0.0882,-0.22931 0.22931,-0.49389 0,-0.0529 0.15875,-0.33514 0.15875,-0.28222 0.38805,-0.59972 0.22931,-0.3175 0.47625,-0.56445 0.26459,-0.26458 0.44098,-0.26458 l 0.49389,-0.19403 q 0.2293,0 0.40569,-0.0176 0.19403,-0.0176 0.38806,-0.12347 0.19402,-0.0882 0.37041,-0.14111 0.17639,-0.0706 0.35278,-0.0706 h 0.84667 z m -1.51695,1.37584 q -0.29986,0 -0.59972,0.40569 -0.29986,0.4057 -0.54681,0.93486 -0.2293,0.51153 -0.38805,0.98778 -0.14111,0.47625 -0.14111,0.61736 v 0.29986 1.07598 q 0,0.24694 0.29986,0.75847 0.3175,0.49389 0.77611,1.00542 0.45861,0.49389 0.97014,0.88194 0.52917,0.38806 0.9525,0.38806 h 0.33514 q 0.37042,0 0.79375,-0.19403 0.44097,-0.19403 0.79375,-0.52917 0.37042,-0.33514 0.61736,-0.77611 0.24695,-0.45861 0.24695,-0.9525 v -0.49389 -1.16417 q 0,-0.37041 -0.10584,-0.58208 -0.0882,-0.22931 -0.24694,-0.42333 -0.15875,-0.21167 -0.37042,-0.45862 -0.21167,-0.26458 -0.44097,-0.70555 -0.14111,-0.10583 -0.3175,-0.26458 -0.15875,-0.15875 -0.35278,-0.29987 -0.17639,-0.14111 -0.38806,-0.24694 -0.19402,-0.10583 -0.37041,-0.10583 h -0.33514 q -0.14111,0 -0.33514,-0.0176 -0.19403,-0.0176 -0.38806,-0.0529 -0.21166,-0.0353 -0.45861,-0.0882 z"
           style="font-family:Trattatello;-inkscape-font-specification:Trattatello;fill:#ffffff"
           id="path54369" />
        <path
           d="m 196.55563,116.00571 q -0.0353,-0.0529 -0.0706,-0.12348 -0.0706,-0.14111 -0.0706,-0.2293 v -0.82903 l -0.15875,-0.98778 v -0.33514 q 0,-0.19403 -0.12347,-0.24694 -0.12347,-0.0706 -0.26458,-0.10584 -0.19403,-0.0353 -0.35278,-0.0705 -0.14111,-0.0353 -0.14111,-0.21167 0,-0.15875 0.0705,-0.29986 0.0706,-0.15875 0.15876,-0.28222 0.10583,-0.14111 0.2293,-0.21167 0.12347,-0.0882 0.22931,-0.0882 0.24694,0.12347 0.49389,0.19402 0.21166,0.0882 0.47625,0.14111 0.26458,0.0529 0.51152,0.0529 h 0.68792 q 0.17639,0 0.4057,-0.0353 0.2293,-0.0529 0.42333,-0.0353 0.21167,0 0.35278,0.12347 0.14111,0.10583 0.14111,0.44097 0.0529,0.17639 0.0705,0.33514 0.0176,0.14111 0,0.26458 0,0.12348 -0.0705,0.17639 h -0.49389 -0.35278 q -0.21167,0 -0.35278,0.22931 -0.12347,0.21167 -0.12347,0.45861 -0.0882,0.26458 -0.10583,0.42333 -0.0176,0.15875 0.0176,0.24695 0.0176,0.10583 0.0882,0.15875 l -0.21167,0.635 q 0.0882,0.14111 0.10584,0.29986 0.0353,0.14111 0.0705,0.26458 0.0176,0.15875 0.0353,0.28223 0,0.0529 -0.0353,0.15875 -0.0353,0.10583 -0.0705,0.2293 -0.0353,0.12347 -0.0706,0.24695 -0.0353,0.12347 -0.0353,0.19402 v 0.33514 q 0,0.0706 -0.0176,0.17639 -0.0176,0.10584 -0.0529,0.22931 -0.0353,0.14111 -0.0706,0.28222 0,0.12347 0.0353,0.22931 0.0353,0.0882 0.0706,0.17638 0.0353,0.0706 0.0353,0.17639 0,0.0882 0,0.21167 0,0.24695 -0.0353,0.33514 -0.10584,0.10583 -0.10584,0.35278 0,0.24694 -0.21166,0.51153 -0.19403,0.24694 -0.42334,0.65264 0,0.2293 -0.2293,0.40569 -0.21167,0.15875 -0.45861,0.38806 -0.12348,0.14111 -0.19403,0.21166 -0.0706,0.0882 -0.14111,0.14111 -0.0529,0.0529 -0.14111,0.0882 -0.0706,0.0353 -0.21167,0.0882 -0.58209,0.26459 -1.14653,0.29986 -0.56444,0.0529 -0.81139,0.0529 -0.29986,0 -0.67028,-0.0353 -0.35278,-0.0353 -0.72319,-0.12347 -0.35278,-0.0882 -0.68792,-0.21167 -0.33514,-0.12347 -0.56444,-0.3175 l -0.35278,-0.49389 q -0.14111,-0.19402 -0.24695,-0.42333 -0.10583,-0.2293 -0.19403,-0.42333 -0.10583,-0.22931 -0.19402,-0.47625 v -1.18181 q 0,-0.24694 -0.10584,-0.49389 -0.0882,-0.26458 -0.0882,-0.67028 v -0.98778 q 0.0353,-0.17638 0.0882,-0.35277 0.0353,-0.14111 0.0706,-0.28223 0.0353,-0.14111 0.0353,-0.19402 -0.0529,-0.24695 -0.10584,-0.44098 -0.0882,-0.38805 -0.0882,-0.5468 0.0353,-0.14111 0.0882,-0.28222 0.0353,-0.12348 0.0706,-0.22931 0.0353,-0.10583 0.0353,-0.17639 v -0.97014 q 0,-0.12347 -0.21167,-0.21167 -0.21167,-0.0882 -0.47625,-0.14111 -0.24694,-0.0705 -0.45861,-0.12347 -0.19403,-0.0706 -0.17639,-0.15875 0,-0.2293 0.19403,-0.45861 0.19403,-0.22931 0.44097,-0.22931 l 0.84667,-0.19402 h 0.33514 q 0.10583,0 0.40569,0.10583 0.3175,0.0882 0.58208,0.0882 h 1.46403 q 0.24695,0 0.28223,0.10584 0.0529,0.10583 0.0529,0.17639 0,0.38805 -0.10583,0.5468 -0.10583,0.14111 -0.28222,0.19403 -0.15875,0.0353 -0.35278,0.0353 -0.17639,0 -0.35278,0.0882 -0.15875,0.0706 -0.26458,0.29986 -0.10584,0.21167 -0.10584,0.70556 0,0.0529 0.0176,0.17639 0.0176,0.10583 0.0353,0.24694 0.0353,0.12348 0.0529,0.24695 0.0353,0.10583 0.0353,0.15875 v 0.49389 2.64583 1.18181 q -0.10584,0.2293 -0.0529,0.29986 0.0529,0.0529 0.0529,0.19403 l 0.19402,0.47625 q 0.17639,0.26458 0.33514,0.42333 0.15875,0.15875 0.35278,0.26459 0.19403,0.0882 0.45861,0.12347 0.26458,0.0353 0.67028,0.0353 0.12347,0 0.42333,-0.10584 0.29986,-0.10583 0.56445,-0.24694 0.0529,-0.12347 0.15875,-0.22931 0.12347,-0.12347 0.28222,-0.3175 0.15875,-0.21167 0.33514,-0.52917 0.19403,-0.33513 0.40569,-0.88194 v -0.68792 q 0,-0.12347 0.0176,-0.45861 0.0176,-0.33514 0.0353,-0.70556 0.0353,-0.37041 0.0529,-0.68791 0.0353,-0.33514 0.0353,-0.44097 z"
           style="font-family:Trattatello;-inkscape-font-specification:Trattatello;fill:#ffffff"
           id="path54371" />
        <path
           d="m 206.80161,111.98404 q 0.35278,0 0.65264,0.28222 0.3175,0.26458 0.56444,0.49389 0.14111,0.42333 0.44098,0.635 0.10583,0.12347 0.21166,0.26458 0.10584,0.14111 0.14111,0.33514 0.0706,0 0.14111,0.15875 0.0706,0.14111 0.12348,0.35278 0.0529,0.19403 0.0882,0.37042 0.0353,0.17638 0.0353,0.2293 0,0.24695 -0.0882,0.54681 -0.0882,0.29986 -0.2293,0.59972 -0.12347,0.29986 -0.28222,0.58208 -0.14111,0.26459 -0.24695,0.44098 -0.0705,0.12347 -0.19403,0.19402 -0.10583,0.0706 -0.21166,0.14112 -0.10584,0.0529 -0.19403,0.15875 -0.0706,0.10583 -0.0706,0.28222 0,0.19403 0.10584,0.51153 0.10583,0.3175 0.26458,0.635 0.15875,0.3175 0.3175,0.56444 0.17639,0.24695 0.28222,0.29986 0.21167,0.14111 0.37042,0.35278 0.17639,0.21167 0.35278,0.42333 0.19403,0.21167 0.40569,0.38806 0.21167,0.15875 0.49389,0.21167 0.10584,0.0353 0.33514,0.14111 0.22931,0.0882 0.35278,0.21166 0.10583,0.10584 0.10583,0.15875 0.0176,0.0353 -0.0176,0.17639 -0.0529,0.19403 -0.26458,0.28223 -0.19403,0.0882 -0.44097,0.10583 -0.22931,0.0353 -0.42334,0.0176 -0.19402,0 -0.2293,-0.0176 -0.12347,-0.10583 -0.33514,-0.10583 -0.19403,0 -0.3175,-0.0353 -0.47625,-0.28222 -0.67028,-0.45861 -0.19403,-0.17639 -0.45861,-0.33514 -0.10583,-0.0529 -0.26458,-0.17639 -0.15875,-0.14111 -0.35278,-0.3175 -0.17639,-0.17639 -0.37042,-0.37042 -0.17639,-0.19403 -0.33514,-0.35278 -0.21166,-0.26458 -0.37041,-0.51152 -0.14112,-0.24695 -0.26459,-0.45862 -0.10583,-0.2293 -0.21167,-0.40569 -0.10583,-0.19403 -0.2293,-0.29986 -0.24695,-0.14111 -0.37042,-0.26459 -0.10583,-0.12347 -0.35278,-0.12347 -0.21166,0 -0.33514,0.14111 -0.10583,0.12348 -0.17638,0.29986 -0.0529,0.17639 -0.0706,0.37042 -0.0176,0.19403 -0.0176,0.3175 l 0.19403,0.82903 v 0.35278 q 0,0.42333 0.26458,0.635 0.28223,0.21167 0.59973,0.35278 0.3175,0.14111 0.58208,0.28222 0.28222,0.12347 0.28222,0.38806 0,0.12347 -0.12347,0.21166 -0.12347,0.0882 -0.22931,0.0882 h -0.635 l -0.98778,-0.14111 h -0.38805 -0.82903 -0.29986 -0.68792 q -0.0529,0 -0.35278,-0.0353 -0.28222,-0.0176 -0.61736,-0.0882 -0.3175,-0.0529 -0.58208,-0.17639 -0.26458,-0.10583 -0.26458,-0.29986 0,-0.0529 0.0529,-0.10583 0.0529,-0.0529 0.12347,-0.10583 0.0706,-0.0706 0.17639,-0.12348 0.0529,0 0.15875,0.0176 0.10584,0.0176 0.21167,0.0353 0.12347,0.0176 0.26458,0.0353 h 0.35278 q 0.35278,0 0.58209,-0.19403 0.24694,-0.21167 0.24694,-0.44097 v -1.85209 -2.8575 l 0.14111,-1.27 q -0.0529,-0.17639 -0.0705,-0.42333 -0.0176,-0.24695 -0.0706,-0.45861 -0.0353,-0.22931 -0.15875,-0.4057 -0.10583,-0.17639 -0.33514,-0.22931 h -0.68792 q -0.19402,0 -0.38805,-0.0353 -0.19403,-0.0353 -0.37042,-0.12348 -0.15875,-0.0882 -0.26458,-0.24694 -0.10584,-0.15875 -0.10584,-0.42333 0,-0.0529 0.0706,-0.10584 0.0882,-0.0705 0.17639,-0.12347 0.10583,-0.0706 0.24694,-0.12347 l 2.98098,-0.14111 h 1.8168 q 0.0529,0 0.19403,-0.0176 0.14111,-0.0176 0.28222,-0.0529 0.17639,-0.0353 0.37042,-0.0706 z m -1.6757,1.79916 q -0.0705,0.0176 -0.15875,0.0353 -0.0882,0.0353 -0.19402,0.0706 -0.10584,0.0176 -0.22931,0.10583 -0.12347,0 -0.24695,0.12347 -0.10583,0.10584 -0.10583,0.35278 v 0.29986 0.68792 0.29986 q 0,0.14111 -0.0705,0.26458 -0.0706,0.10584 -0.0706,0.21167 l 0.0706,0.0353 q 0.0353,0.0353 0.0529,0.0705 0.0176,0.0176 0.0176,0.10584 -0.0529,0.17639 0.0353,0.33514 0.0882,0.14111 0.24694,0.26458 0.15875,0.10583 0.33514,0.17639 0.19403,0.0529 0.3175,0.0529 0.15875,-0.0706 0.3175,-0.14112 0.14111,-0.0529 0.24695,-0.10583 0.12347,-0.0529 0.21166,-0.0529 l 0.35278,0.14112 q 0.22931,0 0.38806,-0.17639 0.15875,-0.19403 0.24694,-0.42334 0.10584,-0.24694 0.15875,-0.45861 0.0529,-0.2293 0.0882,-0.29986 l -0.10584,-0.49389 q 0,-0.12347 -0.0353,-0.2293 -0.0176,-0.12348 -0.15875,-0.26459 0,-0.10583 -0.0353,-0.3175 -0.0176,-0.21166 -0.15875,-0.3175 -0.0529,0 -0.26458,-0.0529 -0.19403,-0.0529 -0.44098,-0.12348 -0.2293,-0.0706 -0.47625,-0.12347 -0.2293,-0.0529 -0.33514,-0.0529 z"
           style="font-family:Trattatello;-inkscape-font-specification:Trattatello;fill:#ffffff"
           id="path54373" />
        <path
           d="m 213.38588,112.21334 q 0.22931,0 0.38806,0.0176 0.15875,0.0176 0.29986,0.14111 0.22931,0.14111 0.28222,0.26459 0.0706,0.10583 0.21167,0.2293 0.12347,0.35278 0.37042,0.44097 0.24694,0.0706 0.45861,0.24695 0.21167,0.17639 0.40569,0.44097 0.21167,0.24695 0.42334,0.52917 0.21166,0.28222 0.40569,0.5468 0.19403,0.26459 0.38806,0.44098 0.26458,0.29986 0.44097,0.635 0.19403,0.3175 0.59972,0.52916 0.10584,0.0882 0.4057,0.4057 0.29986,0.3175 0.65264,0.68792 0.37041,0.35277 0.70555,0.635 0.33514,0.28222 0.52917,0.28222 0.12347,0 0.15875,-0.0529 0.0529,-0.0529 0.0529,-0.12347 0,-0.0882 -0.0353,-0.15875 -0.0176,-0.0882 -0.0176,-0.14111 v -1.32292 q 0,-0.15875 0.0882,-0.37042 0.10584,-0.21166 0.10584,-0.51152 v -1.48167 q -0.0706,-0.0529 -0.19403,-0.17639 -0.12347,-0.12347 -0.24694,-0.24695 -0.12348,-0.14111 -0.24695,-0.24694 -0.10583,-0.10583 -0.15875,-0.10583 h -0.33514 q -0.10583,0 -0.24694,-0.0529 -0.14111,-0.0706 -0.26459,-0.15875 -0.12347,-0.0882 -0.21166,-0.15875 -0.0706,-0.0882 -0.0706,-0.12347 v -0.54681 q 0,-0.17639 0.0706,-0.28222 0.0882,-0.10584 0.21166,-0.14111 0.12348,-0.0529 0.26459,-0.0529 0.14111,-0.0176 0.24694,-0.0176 h 0.33514 q 0.12347,0 0.3175,0.0353 0.21167,0.0176 0.42333,0.0529 0.22931,0.0176 0.42334,0.0529 0.21167,0.0176 0.37042,0.0176 h 2.4518 q 0.35278,0 0.65264,0.15875 0.3175,0.15875 0.3175,0.52917 0,0.14111 -0.0176,0.24694 -0.0176,0.0882 -0.12347,0.24695 -0.40569,0.24694 -0.79375,0.2293 -0.37042,-0.0353 -0.72319,-0.0353 l -0.49389,0.14111 h -0.29987 q -0.14111,0 -0.24694,0.21166 -0.0882,0.19403 -0.0882,0.42334 v 0.68791 0.14112 1.04069 0.82903 q 0,0.10583 0.0705,0.3175 0.0706,0.21167 0.0706,0.3175 v 0.98778 l -0.29986,1.71097 q 0,0.10584 0.0353,0.28222 0.0529,0.17639 0.10584,0.37042 0.0705,0.17639 0.10583,0.35278 0.0529,0.15875 0.0529,0.26458 0,0.0706 -0.0176,0.24695 0,0.17639 -0.0353,0.35278 -0.0176,0.17638 -0.0882,0.29986 -0.0529,0.14111 -0.15875,0.14111 -0.0706,0 -0.24695,0 -0.15875,0 -0.33514,-0.0176 -0.17639,-0.0176 -0.3175,-0.0529 -0.12347,-0.0353 -0.12347,-0.0882 -0.24695,-0.24695 -0.42333,-0.59973 -0.15875,-0.35277 -0.4057,-0.56444 -0.19403,-0.26458 -0.37042,-0.44097 -0.17638,-0.17639 -0.35277,-0.33514 -0.15875,-0.15875 -0.3175,-0.33514 -0.14112,-0.17639 -0.24695,-0.42333 -0.19403,-0.44098 -0.59972,-0.84667 -0.4057,-0.4057 -0.86431,-0.81139 -0.44097,-0.4057 -0.88194,-0.81139 -0.42334,-0.42333 -0.68792,-0.86431 0,-0.0529 -0.0529,-0.15875 -0.0529,-0.12347 -0.14111,-0.2293 -0.0882,-0.10584 -0.21166,-0.19403 -0.10584,-0.0882 -0.22931,-0.0882 -0.33514,0 -0.33514,0.52916 v 1.32292 0.68792 l 0.14111,0.98778 q 0,0.35277 -0.0353,0.49388 -0.0176,0.12348 -0.0176,0.38806 0,0.33514 0.19402,0.51153 0.21167,0.15875 0.51153,0.24694 0.29986,0.0882 0.635,0.14111 0.35278,0.0353 0.65264,0.10584 0.29986,0.0705 0.49389,0.2293 0.21167,0.14111 0.21167,0.42334 0,0.14111 -0.0882,0.15875 -0.0882,0.0353 -0.21166,0.0353 h -2.01084 l -1.12889,0.15875 q -0.14111,-0.12348 -0.35278,-0.14112 -0.21166,-0.0176 -0.33514,-0.0176 h -0.33513 q -0.37042,0 -0.54681,-0.10584 -0.17639,-0.0882 -0.44097,-0.0882 h -0.635 l -0.14111,0.19403 h -0.35278 q 0,-0.0706 -0.0176,-0.22931 0,-0.17639 0,-0.33514 -0.0176,-0.19403 -0.0176,-0.40569 0,-0.14112 0.15875,-0.24695 0.15875,-0.10583 0.28222,-0.10583 0.28222,0 0.37042,0 0.10583,0 0.12347,0 0.0353,-0.0176 0.0353,-0.0176 0.0176,0 0.10583,0 0.10584,-0.0176 0.33514,-0.0176 0.24695,0 0.74084,0 0.12347,0 0.21166,-0.0706 0.0882,-0.0882 0.14111,-0.19402 0.0529,-0.10584 0.0706,-0.21167 0.0176,-0.12347 0.0176,-0.17639 -0.0353,-0.0706 -0.0529,-0.14111 -0.0529,-0.10583 -0.0529,-0.24695 0,-0.26458 -0.0353,-0.42333 -0.0176,-0.17639 -0.0706,-0.29986 -0.0353,-0.12347 -0.0705,-0.21167 -0.0176,-0.10583 -0.0176,-0.24694 0,-0.12347 0.0176,-0.29986 0.0353,-0.17639 0.0705,-0.3175 0.0529,-0.17639 0.10583,-0.35278 v -1.18181 q 0,-0.10583 -0.0353,-0.24694 -0.0176,-0.14111 -0.15875,-0.28222 0,-0.21167 0.0882,-0.26459 0.0529,-0.0353 0.10583,-0.0353 -0.0176,-0.0705 -0.0705,-0.19402 -0.0529,-0.12348 -0.12347,-0.24695 -0.0529,-0.12347 -0.10584,-0.2293 -0.0353,-0.10584 -0.0353,-0.15875 0,-0.37042 -0.28223,-0.56445 -0.28222,-0.19403 -0.635,-0.37042 -0.33514,-0.17639 -0.61736,-0.40569 -0.28222,-0.22931 -0.28222,-0.67028 0.0705,-0.17639 0.14111,-0.3175 0.0706,-0.12347 0.14111,-0.22931 0.0882,-0.10583 0.21167,-0.10583 z"
           style="font-family:Trattatello;-inkscape-font-specification:Trattatello;fill:#ffffff"
           id="path54375" />
        <path
           d="m 229.16223,112.37209 q 0.10583,0 0.19403,0.0176 0.10583,0.0176 0.2293,0.0353 0.14112,0 0.31751,0.0176 0.19402,0.0176 0.49388,0.0176 l 0.58209,-0.14112 q 0.14111,-0.0353 0.26458,-0.0705 0.10583,-0.0353 0.21167,-0.0529 0.10583,-0.0176 0.15875,-0.0176 0.12347,0 0.29986,0.0882 0.19403,0.0882 0.33514,0.19403 0.12347,0.2293 0.15875,0.5468 0.0353,0.3175 0.14111,0.54681 0.0529,0.0529 0.12347,0.21166 0.0706,0.14112 0.14111,0.28223 0.0706,0.19403 0.17639,0.38805 0,0.33514 -0.44097,0.33514 -0.10583,0 -0.3175,-0.15875 -0.21167,-0.17639 -0.54681,-0.37041 -0.33514,-0.21167 -0.79375,-0.37042 -0.45861,-0.17639 -1.09361,-0.17639 l -0.33514,0.0882 q -0.10583,0.15875 -0.21166,0.26459 -0.0882,0.10583 -0.0882,0.17639 v 0.15875 q -0.0353,0.14111 -0.0705,0.26458 -0.0353,0.10583 -0.0529,0.21167 -0.0176,0.10583 -0.0176,0.15875 v 1.27 q 0,0.26458 0.10583,0.51153 0.10584,0.2293 0.33514,0.2293 0.0529,0 0.17639,-0.0176 0.12347,-0.0176 0.26459,-0.0529 0.15875,-0.0353 0.33513,-0.0706 h 0.35278 q 0.14111,0 0.24695,-0.0706 0.12347,-0.0705 0.2293,-0.14111 0.10584,-0.0882 0.19403,-0.15875 0.10583,-0.0705 0.21167,-0.0705 0.0529,0 0.12347,0.0705 0.0706,0.0706 0.14111,0.15875 l 0.17639,0.21167 v 1.16417 q 0,0.49389 -0.44097,0.49389 -0.19403,0 -0.33514,-0.0706 -0.14111,-0.0882 -0.24695,-0.17639 -0.19402,-0.0705 -0.33514,-0.15875 -0.12347,-0.0882 -0.3175,-0.0882 h -0.28222 -0.35278 q -0.44097,0 -0.56444,0.15875 -0.12347,0.15875 -0.12347,0.635 v 0.44097 q 0.0529,0.24695 0.0705,0.49389 0.0176,0.24694 0.0529,0.45861 0.0529,0.21167 0.17639,0.37042 0.12347,0.14111 0.38805,0.19403 h 0.98778 q 0.24695,0 0.52917,-0.0882 0.29986,-0.10583 0.59972,-0.26458 0.29986,-0.10584 0.54681,-0.19403 0.26458,-0.0882 0.47625,-0.0882 0.0705,0.0529 0.14111,0.12347 0.0529,0.0529 0.10583,0.10583 0.0529,0.0529 0.0529,0.10583 0,0.12348 -0.0882,0.22931 -0.0882,0.10583 -0.21166,0.21167 -0.24695,0.2293 -0.35278,0.47625 -0.10583,0.2293 -0.21167,0.44097 -0.0882,0.19403 -0.2293,0.3175 -0.14111,0.14111 -0.42334,0.14111 -0.10583,0 -0.19402,-0.0353 -0.0882,-0.0176 -0.19403,-0.0705 -0.0882,-0.0353 -0.22931,-0.0706 -0.12347,-0.0176 -0.3175,-0.0176 l -1.71097,0.0529 -0.59972,0.14111 h -0.93487 -0.52916 l -0.35278,0.10584 -0.52917,0.0353 q -0.0882,0 -0.19403,-0.0705 -0.10583,-0.0706 -0.19402,-0.17639 -0.0882,-0.0882 -0.15875,-0.17639 -0.0529,-0.10583 -0.0529,-0.15875 0,-0.44097 0.65264,-0.44097 0.14111,-0.0529 0.28222,-0.12348 0.26459,-0.12347 0.44097,-0.17638 0.37042,-0.0706 0.49389,-0.22931 0.14111,-0.15875 0.14111,-0.74083 0,-0.0882 0.0529,-0.17639 0.0706,-0.10584 -0.0529,-0.21167 0,-0.0882 -0.0176,-0.17639 -0.0176,-0.10583 -0.0529,-0.19403 -0.0353,-0.10583 -0.0706,-0.2293 v -0.33514 -0.635 -0.44097 l 0.14111,-1.23473 v -0.29986 q 0,-0.10583 0.0176,-0.14111 0.0353,-0.0353 0.0353,-0.14111 v -0.93486 -0.49389 -0.52917 q 0,-0.15875 -0.17639,-0.24694 -0.17639,-0.10584 -0.26458,-0.10584 h -0.49389 q -0.33514,0 -0.49389,-0.28222 -0.14111,-0.28222 -0.14111,-0.65264 0,-0.10583 0.0882,-0.19403 0.10584,-0.0882 0.21167,-0.0882 h 0.58208 0.35278 q 0.10584,0 0.3175,-0.0176 0.22931,-0.0353 0.56445,-0.0353 z"
           style="font-family:Trattatello;-inkscape-font-specification:Trattatello;fill:#ffffff"
           id="path54377" />
        <path
           d="m 243.72011,112.17806 q 0.10583,0 0.26458,0.0353 0.17639,0.0353 0.33514,0.0882 0.15875,0.0353 0.26459,0.0882 0.12347,0.0353 0.12347,0.0706 0,0.40569 -0.22931,0.65264 -0.2293,0.2293 -0.59972,0.2293 h -0.5468 q -0.24695,0 -0.37042,0.0882 -0.12347,0.0882 -0.21167,0.2293 -0.0705,0.12347 -0.10583,0.3175 -0.0353,0.17639 -0.0882,0.35278 -0.0882,0.10583 -0.15875,0.21167 -0.0705,0.10583 -0.19402,0.17639 -0.0706,0.12347 -0.17639,0.2293 -0.0882,0.10583 -0.15875,0.21167 -0.10584,0.19403 -0.3175,0.59972 -0.19403,0.38806 -0.38806,0.88195 -0.19403,0.47625 -0.33514,0.97014 -0.14111,0.49388 -0.14111,0.88194 v 0.635 l -0.0882,0.49389 q 0,0.0529 0.0176,0.22931 0.0176,0.15875 0.0529,0.33513 0.0353,0.15875 0.0882,0.29987 0.0529,0.12347 0.12347,0.12347 0.12347,0.0705 0.51153,0.17639 0.38805,0.0882 0.79375,0.2293 0.42333,0.12348 0.74083,0.28223 0.3175,0.15875 0.3175,0.33513 0,0.0882 -0.0176,0.15875 -0.0353,0.14112 -0.17639,0.14112 -0.15875,0.14111 -0.28222,0.19402 -0.10583,0.0529 -0.21167,0.19403 -0.0705,0 -0.12347,0.0706 -0.0353,0.0882 -0.0882,0.17639 -0.0353,0.0882 -0.10584,0.15875 -0.0705,0.0882 -0.17639,0.0882 -0.14111,0 -0.37041,-0.10583 -0.21167,-0.0882 -0.45861,-0.0882 h -1.18181 q -0.14111,0 -0.28222,-0.0176 -0.12347,-0.0176 -0.28222,-0.0529 -0.14112,-0.0176 -0.26459,-0.0882 h -0.79375 q -0.29986,0 -0.44097,0.0706 -0.14111,0.0882 -0.44097,0.0882 h -0.29987 q -0.61736,0 -0.82902,-0.15875 -0.19403,-0.15875 -0.19403,-0.635 0,-0.29986 0.15875,-0.58208 0.15875,-0.29986 0.52917,-0.29986 l 0.82902,0.19403 q 0.10584,0 0.24695,-0.0529 0.15875,-0.0706 0.26458,-0.15875 0.12347,-0.0882 0.17639,-0.21167 0.0529,-0.12347 0,-0.26458 l -0.19403,-1.95792 q 0,-0.14111 -0.0176,-0.28222 -0.0176,-0.15875 0.0706,-0.29986 0,-0.10584 -0.0529,-0.21167 -0.0529,-0.12347 -0.0529,-0.22931 0,-0.37041 -0.19403,-0.65264 -0.17639,-0.29986 -0.58209,-0.67027 -0.12347,-0.26459 -0.47625,-0.49389 -0.33513,-0.22931 -0.70555,-0.49389 -0.10583,-0.24695 -0.3175,-0.51153 -0.21167,-0.26458 -0.3175,-0.51153 -0.10584,-0.0882 -0.22931,-0.12347 -0.12347,-0.0353 -0.26458,-0.12347 -0.33514,-0.0882 -0.68792,-0.14111 -0.29986,-0.12348 -0.47625,-0.3175 -0.15875,-0.21167 -0.15875,-0.56445 0,-0.29986 0.12347,-0.49389 0.14111,-0.19403 0.51153,-0.19403 h 0.84667 q 0.24694,0 0.47625,0.10584 0.22931,0.0882 0.35278,0.0882 h 0.82903 q 0.0529,0 0.19402,0.0176 0.14111,0.0176 0.29986,0.0353 0.17639,0 0.35278,0.0176 0.17639,0.0176 0.28223,0.0176 h 0.38805 q 0.12347,0 0.14111,0.0353 0.0176,0.0176 0.0176,0.15875 0,0.14112 -0.10583,0.26459 -0.10584,0.12347 -0.22931,0.28222 -0.10583,0.14111 -0.21166,0.29986 -0.10584,0.15875 -0.10584,0.33514 0,0.19403 0.19403,0.49389 0.19403,0.29986 0.44097,0.59972 0.28222,0.33514 0.65264,0.7232 0,0.0529 0.0353,0.15875 0.0353,0.10583 0.0706,0.21166 0.0529,0.10584 0.10583,0.19403 0.0705,0.0706 0.12347,0.0706 0.12347,0 0.24695,-0.17639 0.12347,-0.17639 0.2293,-0.4057 0.10583,-0.2293 0.19403,-0.42333 0.0882,-0.21167 0.15875,-0.26458 0,-0.0706 0.10583,-0.24695 0.10584,-0.17639 0.22931,-0.37041 0.14111,-0.21167 0.24694,-0.4057 0.10584,-0.21167 0.10584,-0.35278 0,-0.10583 -0.14111,-0.17639 -0.14112,-0.0705 -0.29987,-0.15875 -0.15875,-0.10583 -0.29986,-0.24694 -0.14111,-0.14111 -0.14111,-0.4057 0,-0.0705 0.0706,-0.12347 0.0882,-0.0529 0.19402,-0.0882 0.12348,-0.0353 0.22931,-0.0529 0.12347,-0.0176 0.19403,-0.0176 0.10583,0.0353 0.19403,0.0529 0.0882,0.0176 0.15875,0.0353 0.0882,0 0.14111,0 h 0.33514 q 0.26458,-0.0706 0.45861,-0.0706 0.19403,-0.0176 0.67028,-0.0176 0.17639,0 0.28222,-0.0176 0.12347,-0.0353 0.19403,-0.0705 0.0882,-0.0529 0.17639,-0.0706 0.0882,-0.0353 0.2293,-0.0353 z"
           style="font-family:Trattatello;-inkscape-font-specification:Trattatello;fill:#ffffff"
           id="path54379" />
      </g>
    </g>
    <g
       aria-label="[]"
       id="text57628"
       style="font-size:24.6944px;line-height:1.25;font-family:Trattatello;-inkscape-font-specification:Trattatello;stroke-width:0.264583"
       transform="translate(-60.123018,19.307798)">
      <path
         d="m 85.5349,88.978187 q 0.19756,0 0.4445,0.24695 0.24695,0.22225 0.24695,0.56797 0,0.0988 -0.39512,0.24694 -0.37041,0.12348 -0.81491,0.27164 -0.4445,0.14817 -0.83961,0.32103 -0.37042,0.14817 -0.37042,0.32103 v 5.50685 q -0.0494,0.19755 -0.0988,0.37041 -0.0494,0.14817 -0.0741,0.29634 -0.0247,0.14816 -0.0247,0.22225 l 0.19755,3.358413 v 1.38289 l -0.0494,1.23472 q 0,0.27164 0,0.69144 0.0247,0.39512 0.0247,0.79023 0,0.39511 0,0.71613 0.0247,0.32103 0.0247,0.39511 v 2.96333 1.16064 q 0,0.0741 0.0741,0.22225 0.0741,0.17286 0.17286,0.32103 0.12347,0.17286 0.24694,0.29633 0.12347,0.12347 0.19756,0.12347 l 0.889,0.54328 q 0.37041,0.17286 0.56797,0.34572 0.19755,0.19755 0.19755,0.56797 0,0.17286 -0.19755,0.19755 -0.17286,0.0494 -0.4445,0.0247 -0.27164,0 -0.56797,-0.0494 -0.27164,-0.0494 -0.4445,-0.0494 h -0.4692 -0.4198 -0.46919 l -0.96309,-0.19755 q -0.37041,0 -0.56797,0.0494 -0.19755,0.0741 -0.39511,0.0741 -0.17286,0 -0.4445,-0.14817 -0.24694,-0.12347 -0.24694,-0.32103 0,-0.24694 0.0988,-0.44449 0.0988,-0.17287 0.22225,-0.34573 0.12347,-0.14816 0.24694,-0.32102 0.14817,-0.17286 0.19756,-0.39511 0.0494,-0.37042 0.0247,-0.56797 -0.0247,-0.19756 -0.0247,-0.39512 v -0.69144 -5.13643 -5.926645 -0.814918 q 0,-1.3088 0.0247,-2.37066 0,-0.91369 0,-1.67922 0.0247,-0.76552 0.0247,-0.889 0,-0.66674 -0.22225,-0.98777 -0.22225,-0.34572 -0.39511,-0.4445 -0.0988,-0.0494 -0.19755,-0.27164 -0.0741,-0.22225 -0.0741,-0.83961 0,-0.0988 0.0247,-0.19755 0.0247,-0.0741 0.0494,-0.14817 0.0494,-0.0741 0.14817,-0.0741 h 0.46919 q 0.0741,0 0.17286,0 0.12347,0 0.24694,-0.0247 0.12348,0 0.27164,-0.0247 0.0988,0 0.27164,0.0247 0.17286,0.0247 0.34572,0.0494 0.19756,0.0247 0.41981,0.0494 0.29633,0 0.54327,-0.0247 0.24695,-0.0494 0.39511,-0.0494 z"
         style="fill:#ffffff"
         id="path60768" />
      <path
         d="m 192.96753,112.44626 q -0.14816,0 -0.39511,-0.24695 -0.22225,-0.22225 -0.22225,-0.59266 0,-0.12347 0.37042,-0.27164 0.39511,-0.14817 0.83961,-0.32103 0.4445,-0.14816 0.81491,-0.32102 0.39511,-0.17287 0.39511,-0.32103 v -1.62983 q 0.0247,-0.19756 0.0494,-0.39511 0.0247,-0.17286 0.0494,-0.32103 0.0247,-0.17286 0.0247,-0.24694 l -0.12348,-3.30905 v -2.59292 l 0.0494,-1.18533 q 0,-0.17286 -0.0247,-0.59266 0,-0.444497 -0.0247,-1.012464 0,-0.567972 -0.0247,-1.185332 0,-0.61736 -0.0247,-1.13595 0,-0.54327 -0.0247,-0.91369 0,-0.37042 0,-0.4445 v -2.88924 q 0,-0.19756 0.0247,-0.41981 0.0494,-0.22225 0.0494,-0.74083 0,-0.0741 -0.0988,-0.22225 -0.0741,-0.17286 -0.19756,-0.32103 -0.0988,-0.17286 -0.22225,-0.29633 -0.0988,-0.12347 -0.17286,-0.12347 l -0.96308,-0.54328 q -0.32103,-0.14816 -0.51858,-0.34572 -0.17286,-0.19756 -0.17286,-0.54328 0,-0.17286 0.17286,-0.22225 0.19755,-0.0494 0.46919,-0.0247 0.27164,0 0.54328,0.0494 0.27164,0.0494 0.46919,0.0494 h 0.46919 0.41981 0.46919 l 0.96308,0.22225 q 0.32103,0 0.54328,-0.0741 0.22225,-0.0741 0.41981,-0.0741 0.17286,0 0.4198,0.14817 0.27164,0.12347 0.27164,0.34572 0,0.24694 -0.12347,0.4445 -0.0988,0.17286 -0.22225,0.34572 -0.12347,0.14817 -0.24695,0.32103 -0.0988,0.17286 -0.0988,0.39511 -0.0494,0.34572 -0.0247,0.56797 0.0247,0.19755 0.0247,0.39511 v 0.66675 7.704646 7.0626 0.889 q -0.0494,0.22225 -0.0741,0.4445 -0.0247,0.19755 -0.0494,0.37041 0,0.19756 0,0.29633 0,0.66675 0.22225,0.98778 0.24695,0.34572 0.4445,0.4445 0.12348,0.0494 0.17286,0.24694 0.0494,0.22225 0.0494,0.79022 0,0.14817 -0.0247,0.24695 -0.0494,0.22225 -0.19756,0.22225 h -0.46919 q -0.12347,0 -0.22225,0 -0.0988,0.0247 -0.22225,0.0494 -0.12347,0.0247 -0.24694,0.0247 -0.12348,0 -0.29634,-0.0247 -0.14816,-0.0247 -0.29633,-0.0741 -0.17286,-0.0494 -0.37042,-0.0988 -0.4198,0 -0.66674,0.0494 -0.22225,0.0741 -0.41981,0.0741 z"
         style="fill:#ffffff"
         id="path60770" />
    </g>
  </g>
</svg>
